ply
format ascii 1.0
comment VCGLIB generated
element vertex 418
property float x
property float y
property float z
property float nx
property float ny
property float nz
element face 794
property list uchar int vertex_indices
end_header
-1282.01 16814.6 0.000775146 -0.335737 -0.432692 0.135536 
4694.71 17001.7 395.715 -2.44012e-07 -0.0174279 0.0423388 
3643.22 17001.8 395.726 -8.37033e-06 -0.59783 1.45235 
-1444.6 17035.2 0.000775146 0 0 -2.41082 
-1544.16 19527.8 0.000775146 0 0 -1.57504 
-1282.01 21270.4 0.000775146 0 0 -0.188813 
-1457.39 17104 0.000775146 0 0 -2.40245 
-1497.87 17587.7 0.000775146 0 0 -0.379521 
5520.51 16910.8 0.000775146 0 0 -0.138606 
6072.33 17218.2 0.000775146 0 0 -0.277198 
5898.13 17098.9 0.000775146 0 0 -0.231004 
-1444.6 21049.8 0.000775146 0 0 -2.41083 
6826.34 18216.7 0.000775146 0 0 -0.554395 
3643.25 16889.4 310.117 0 -0.0361805 0.0280329 
4694.71 16889.4 310.117 0 -1.2417 0.962075 
3643.23 16957.2 377.389 -6.41395e-06 -0.951816 1.24928 
3643.24 16918.9 348.19 -6.22891e-06 -0.924357 1.21324 
5713.67 16996.1 0.000775146 0 0 -0.184794 
3643.22 17049.5 401.968 0 -0.203776 1.55738 
-1330.03 16865.1 42.3331 -0.831108 -1.15456 0.494269 
6741.05 18023.5 0.000775146 0 0 -0.508203 
6638.3 17839 0.000775146 0 0 -2.58719 
6741.05 20061.4 0.000775146 0 0 -2.54099 
4905.63 21318.7 0.000775146 0 0 -3.04919 
5114.76 21289.5 0.000775146 0 0 -3.003 
-1526.8 18072.2 0.000775146 0 0 -1.81499 
-1325.55 17032.5 291.954 -0.668463 -0.325667 0.378024 
6893.44 19668.1 0.000775146 0 0 -0.663424 
5898.13 20986.1 0.000775146 0 0 -0.231003 
6970.96 18831.5 0.000775146 0 0 -1.59225 
-1419.87 21115.2 0.000775146 0 0 -0.463974 
6518.98 20420.1 0.000775146 0 0 -2.63339 
-1082.91 16756.5 0.000775146 0 0 -0.0947589 
6072.33 20866.7 0.000775146 0 0 -2.772 
-1497.87 20497.3 0.000775146 0 0 -1.76387 
-1316.2 16894.6 134.516 -0.507513 -0.43241 0.303273 
-1419.87 16969.8 0.000775146 0 0 -2.49676 
-1369.78 17097.5 269.794 -0.422715 -0.112126 0.193651 
6941.78 18622.4 0.000775146 0 0 -1.33211 
-1544.16 18557.2 0.000775146 0 0 -0.0243119 
-1255.41 16816 53.0378 -0.602596 -0.844534 0.324325 
-1383.71 21175.2 0.000775146 0 0 -0.373778 
6980.71 19042.5 0.000775146 0 0 -1.5246 
6970.96 19253.4 0.000775146 0 0 -1.59225 
-1082.91 21328.5 0.000775146 0 0 -0.0947589 
-1219.74 21302.2 0.000775146 0 0 -0.0946971 
-1375.92 16956.6 119.4 -1.05161 -0.86842 0.593148 
5520.51 21174.1 0.000775146 0 0 -0.138607 
4694.71 21328.5 0.000775146 0 0 -0.0462028 
5320.3 21241.2 0.000775146 0 0 -2.95678 
-1268.66 16975.2 304.844 -0.780987 -1.06414 0.819431 
-1294.25 16930.3 222.19 -0.35434 -0.48281 0.371783 
-1171.08 16784.5 57.5918 -0.281823 -0.964244 0.266983 
-1152.55 16763.1 0.000775146 -0.322922 -1.10486 0.305918 
4694.71 16756.5 0.000775146 0 0 -0.0461977 
-1383.71 16909.8 0.000775146 -0.766144 -0.461814 0.153361 
-1438.01 17075.9 81.7911 -0.773057 -0.14347 0.133723 
-1433.93 17005.7 4.7439 -1.42936 -0.464999 0.330897 
-1337.34 16857.5 0.000775146 -1.12679 -0.999608 0.373777 
-1397.14 17057.4 186.822 -0.663157 -0.32179 0.27215 
-1390.5 16929.7 25.8922 -0.833896 -0.700135 0.318456 
-1420.02 17029 97.5933 -1.15822 -0.596574 0.360534 
-1352.62 16989.3 208.556 -0.459942 -0.379287 0.345592 
-1050.34 16874.2 284.235 -0.196959 -1.45757 0.835474 
-1201.72 16928.4 307.87 -0.363953 -0.504306 0.381679 
-1127.81 16894.2 300.893 -0.281829 -0.705002 0.469666 
-1219.74 16782.7 0.000775146 -0.455976 -1.15937 0.419966 
-1416.31 17101.2 170.351 -1.71383 -0.186055 0.60052 
-1224.52 16883.6 226.878 -0.2609 -0.663641 0.34721 
-1147.04 16850.9 222.627 -0.532768 -1.35518 0.709015 
3643.24 21166 348.19 3.11292e-08 0.0277411 0.0364047 
3629.42 21215 275.758 -1.34695e-06 1.10328 0.746549 
-1162.09 16814.4 141.637 -0.117976 -0.867296 0.321906 
-1243.56 16846.5 141.985 -0.267187 -0.681221 0.271521 
4694.71 21083.2 395.715 5.758e-06 0.580782 1.41013 
3643.23 21127.7 377.389 -9.20603e-06 0.580547 1.41042 
3643.22 21083.2 395.726 -9.47972e-06 0.597807 1.45235 
4694.71 21035.4 401.968 0 0.00593247 0.0453377 
3643.22 21035.4 401.968 0 0.203784 1.55738 
-1523.91 19312.5 133.491 -0.430788 0.00230844 0.138656 
-1526.8 20012.8 0.000775146 -0.368166 0.0219864 0.0649911 
-1471.22 19698.5 263.242 -1.15952 0.0273966 0.389385 
-1549.95 19042.5 0.000775146 -1.08712 0.0090761 0.193738 
-1479.65 19312.5 265.726 -1.4336 0.0157377 0.47986 
-1441.57 20341 254.505 -1.48159 0.121807 0.503557 
-1457.39 20980.9 0.000775146 -1.33519 0.111758 0.256875 
-1484.64 20341 127.781 -0.194439 0.0158961 0.0665476 
-1515.22 19698.5 132.207 -2.04254 0.0731303 0.352716 
3410.55 21214.8 276.154 1.60768e-05 0.0773979 0.0413427 
4694.71 21258.8 193.315 1.24799e-05 0.0601155 0.0321111 
-1064.17 21246.9 217.96 8.06606e-05 1.20709 0.657839 
-1080.87 21306.2 75.2256 0 1.51804 0.449322 
4694.71 21298.2 98.2917 0.000236915 1.49711 0.461315 
-1424.32 21046.3 94.4531 -1.20351 0.231073 0.261335 
-1325.55 21052.5 291.954 -1.14297 0.548588 0.670542 
-1201.72 21156.5 307.87 -0.753141 1.02557 0.799961 
-1233.75 21196.2 226.785 -0.368143 0.501311 0.391029 
-1268.66 21109.7 304.844 -0.45296 0.616807 0.481118 
-1108.63 21244.2 217.53 -0.0385454 0.5103 0.236043 
-1074.51 21278.9 147.994 -0.0323155 0.495728 0.23182 
-1129.02 21308.7 57.5182 -0.0946228 0.994116 0.265257 
-1152.55 21321.8 0.000775146 -0.111176 1.16803 0.311661 
-1172.62 21267.4 142.108 -0.305464 0.714861 0.285302 
-1253.22 21233.2 141.478 -0.579122 1.35529 0.540897 
-1050.34 21210.7 284.235 -0.0278116 0.420942 0.235216 
-1157.03 21230.8 223.641 -0.30292 0.71569 0.470289 
-1121.56 21279.6 138.731 -0.107689 0.508252 0.192026 
-1182 21297.6 57.3686 -0.209886 0.991423 0.3118 
-1337.34 21227.4 0.000775146 -0.943949 0.837376 0.281414 
-1396.92 21146.3 23.4792 -0.657086 0.5129 0.260389 
-1324.44 21183.3 133.031 -0.540766 0.421817 0.21541 
-1265.38 21263.7 52.0294 -0.927667 1.20378 0.536585 
-1338.45 21212.5 40.5758 -0.456176 0.591953 0.263863 
-1438.05 21069.1 1.82702 -1.60409 0.648541 0.397285 
-1435.86 20952.5 124.244 -0.985807 0.180407 0.367707 
-1399.31 20917.5 239.384 -0.870332 0.196856 0.392694 
-1369.78 20987.4 269.794 -1.24569 0.281757 0.562056 
-1401.63 21018.6 183.587 -1.01272 0.229098 0.329014 
-1382.34 21119.8 117.014 -0.482057 0.388905 0.266409 
-1358.99 21087.6 206.259 -0.999224 0.768945 0.704652 
-1127.81 21190.7 300.893 -0.0891087 0.443002 0.263484 
-1302.24 21147.8 220.965 -0.878242 1.1595 0.689088 
5083.52 20997.2 401.968 0 0 0.0490863 
6678.09 19237.8 401.968 0 0 2.99433 
6678.09 18847.1 401.968 0 0 0.0490863 
6535.98 18279.8 401.968 0 0 0.343609 
6235.3 17778.1 401.968 0 0 0.0490875 
5634.19 20800.1 401.968 0 0 0.981747 
4900.81 21200.9 284.235 0.0627166 1.36176 0.751315 
4903.23 21292.8 86.3071 0.209546 1.50217 0.457245 
6056.63 20845.9 86.3071 0.968944 1.16686 0.457271 
6022.16 20800.3 221.217 0.843292 1.18421 0.832191 
6364.83 20565 86.3071 1.16686 0.968948 0.457271 
6638.3 20245.9 0.000775146 0.9635 0.53666 0.332488 
6460.93 20300.2 284.235 0.348761 0.224135 0.240943 
6868.39 19660.9 86.3071 0.368168 0.123397 0.117058 
6941.78 19462.5 0.000775146 1.09228 0.152366 0.332492 
6945.02 19251 86.3071 0.384569 0.0536447 0.117063 
6801.85 19553.7 284.235 0.477727 0.0920723 0.284889 
6743.72 18333.3 284.235 0.600424 -0.240376 0.377651 
6572.48 17958.3 284.235 0.606385 -0.389696 0.418918 
6460.93 17784.8 284.235 0.348759 -0.224131 0.240938 
5500.57 17029.5 284.235 0.140268 -0.307144 0.191247 
5676.56 17070.7 221.217 0.565923 -1.2392 0.771606 
5297.52 16923.8 221.217 0.295479 -1.21794 0.700924 
4890.05 21025.9 401.968 0 0 0.0490875 
4694.71 17049.5 401.968 0 0 1.47263 
5273.24 17135.3 401.968 0 0 1.22718 
6103.96 20451.7 401.968 0 0 2.3071 
6103.96 17633.2 401.968 0 0 0.0490887 
6452.36 19982 401.968 0 0 0.3927 
6649.39 18653.7 401.968 0 0 0.0490875 
5713.67 21088.8 0.000775146 0.188948 0.339223 0.117058 
6916.18 19457.7 86.3071 0.377982 0.0889015 0.117067 
6859.95 19447.2 221.217 0.8702 0.204671 0.378663 
6826.34 19868.3 0.000775146 1.36411 0.602306 0.449532 
6717.73 20049.8 86.3071 1.38749 0.61264 0.457263 
6802.05 19858.9 86.3071 0.355207 0.156841 0.117063 
6498.19 20404.4 86.3071 0.469456 0.321588 0.24104 
6616.16 20232.2 86.3071 1.17957 0.808033 0.605645 
6234.78 20731.8 0.000775146 0.274567 0.274565 0.117066 
6384.08 20582.5 0.000775146 1.05441 1.05441 0.449568 
6217.23 20712.6 86.3071 0.402375 0.402374 0.241036 
5511.1 21149.8 86.3071 0.229848 0.520557 0.241035 
5313.17 21216.1 86.3071 0.258343 1.09843 0.340211 
5109.97 16821 86.3071 0.155899 -1.1176 0.340192 
5702.05 17019.4 86.3071 0.577525 -1.30797 0.605631 
6022.16 17284.6 221.217 0.5052 -0.737502 0.378663 
6518.98 17664.8 0.000775146 1.2302 -0.842705 0.449568 
6893.44 18416.9 0.000775146 1.45156 -0.341405 0.449564 
6916.18 18627.2 86.3071 0.553928 -0.130283 0.241039 
6813.36 18439.7 221.217 0.870207 -0.204671 0.378666 
6868.39 18424 86.3071 1.3918 -0.327349 0.605636 
6859.95 18637.7 221.217 1.42413 -0.334953 0.619703 
6666.52 18060.6 221.217 0.37526 -0.209018 0.220755 
6333.37 17622.6 284.235 0.314081 -0.246998 0.231509 
6322.56 17558.5 221.217 0.437783 -0.363533 0.241034 
6616.16 17852.8 86.3071 0.469459 -0.321586 0.241034 
6567.52 17882.9 221.217 1.20697 -0.826786 0.619696 
6452.54 17715 221.217 0.46946 -0.321585 0.241036 
6178.69 17414.6 221.217 0.977364 -1.12793 0.858159 
5688.27 17115.2 284.235 0.687863 -1.23494 0.745932 
5854.3 17169.7 221.217 0.540677 -0.789279 0.502007 
5305.58 16962 284.235 0.107083 -0.309401 0.184318 
5313.17 16868.8 86.3071 0.27354 -0.816131 0.364595 
5490.43 16988.5 221.217 0.180838 -0.539547 0.241035 
4900.82 16884 284.235 0.161074 -1.15469 0.632207 
5099.46 16877.2 221.217 0.0426244 -0.305563 0.167299 
4897.95 16849.1 221.217 0.0538157 -1.12948 0.623114 
4903.23 16792.2 86.3071 0.0205883 -0.414215 0.17157 
4905.63 16766.2 0.000775146 0.152371 -1.0923 0.332485 
5114.76 16795.4 0.000775146 0.0888985 -0.377982 0.11707 
5320.3 16843.7 0.000775146 0.35047 -1.04568 0.332502 
5511.1 16935.1 86.3071 0.123395 -0.368167 0.117069 
5884.42 17121 86.3071 0.188948 -0.339222 0.117064 
6056.63 17239 86.3071 0.637703 -0.930936 0.340203 
6234.78 17353.1 0.000775146 0.274567 -0.274565 0.117066 
6384.08 17502.4 0.000775146 1.05441 -1.05441 0.449568 
6364.83 17519.9 86.3071 0.868129 -0.720886 0.340204 
6498.19 17680.5 86.3071 0.437784 -0.363532 0.241036 
6217.23 17372.3 86.3071 0.402375 -0.402374 0.241036 
6717.73 18035.1 86.3071 1.32504 -0.738044 0.457249 
6802.05 18226.1 86.3071 1.06993 -0.35861 0.34019 
6840.9 18733.9 284.235 1.69499 -0.236441 0.87308 
6888.06 18839.2 221.217 1.44897 -0.202122 0.619704 
6945.02 18833.9 86.3071 0.852484 -0.118916 0.364596 
6954.66 19042.5 86.3071 0.859829 -0.0397541 0.364592 
6748.71 18246.7 221.217 0.60894 -0.204096 0.328497 
6888.06 19245.7 221.217 0.553409 0.0255868 0.28247 
6897.45 19042.5 221.217 0.528511 0.0244356 0.269762 
5490.43 21096.5 221.217 0.103985 0.31025 0.174866 
5854.3 20915.3 221.217 0.540681 0.789298 0.501997 
5884.42 20963.9 86.3071 0.695739 1.24909 0.60564 
5702.05 21065.5 86.3071 0.276897 0.497127 0.241039 
5676.56 21014.3 221.217 0.711906 1.2781 0.619696 
6178.69 20670.3 221.217 0.97735 1.12793 0.858162 
6035.04 20746.8 284.235 0.966259 1.1636 0.789568 
6567.52 20202.1 221.217 0.34125 0.23376 0.213252 
6452.54 20369.9 221.217 0.687743 0.571095 0.378656 
6322.56 20526.4 221.217 0.615574 0.511169 0.414018 
6666.52 20024.3 221.217 0.619212 0.273409 0.346967 
6743.72 19751.6 284.235 0.447603 0.131428 0.272844 
6813.36 19645.3 221.217 0.847611 0.284089 0.378663 
6748.71 19838.2 221.217 1.38715 0.46492 0.619694 
4694.71 21205.7 292.855 0.0594146 1.24894 0.733439 
4897.95 21235.8 221.217 0.0726283 1.32214 0.561107 
5105.05 21171.6 284.235 0.17713 1.23197 0.69115 
5099.46 21207.7 221.217 0.169826 1.18116 0.662649 
5297.52 21161.1 221.217 0.0727177 0.309167 0.170938 
5109.97 21263.9 86.3071 0.197074 0.83788 0.364598 
5305.58 21122.9 284.235 0.107082 0.3094 0.184308 
5500.57 21055.4 284.235 0.54814 1.24146 0.720469 
4844.46 16980.4 386.351 0.0011638 -0.121421 0.294823 
4694.71 21200.6 301.482 -0.126718 -2.32015 -0.975094 
4685.41 21204 294.604 -0.0296222 -0.542369 -0.227943 
5102.18 21156.6 310.117 0.0177878 0.123721 0.07335 
5688.26 20969.7 284.235 0.667 1.15531 0.782778 
6025.64 20734.9 310.117 0.797916 1.12053 0.80718 
6448.54 20291.4 310.117 0.983052 0.773077 0.733849 
6667.03 19943.2 284.235 1.07458 0.553993 0.709441 
6729.35 19746.7 310.117 0.11604 0.0464553 0.0733472 
6825.85 19348.9 310.117 0.122734 0.0236554 0.0733506 
6801.85 18531.3 284.235 1.30982 -0.252439 0.782813 
6653.2 18148.1 310.117 1.16098 -0.46479 0.733841 
6190.98 17473.2 284.235 0.0818532 -0.0944632 0.0733519 
5858.74 17231.2 310.117 0.0624971 -0.108247 0.0733514 
4694.71 16884.4 301.482 0.0615177 -1.29157 0.756398 
5105.05 16913.4 284.235 0.0177873 -0.123721 0.0733405 
4899.37 16899.2 310.117 0.017789 -0.123721 0.073354 
4694.71 16879.3 292.855 0.0634211 -1.33107 0.784716 
5494.92 17043.6 310.117 0.571414 -1.25123 0.807242 
5866.96 17218.4 284.235 0.666968 -1.15521 0.782786 
6035.04 17338.1 284.235 0.072502 -0.101816 0.07335 
6321.88 17632.5 310.117 0.0982515 -0.0772654 0.0733564 
6667.03 18141.7 284.235 0.111098 -0.0572748 0.0733486 
6729.35 18338.3 310.117 0.119931 -0.0352148 0.073353 
6845.33 18940 310.117 1.36933 -0.13075 0.807243 
6860.52 18939.3 284.235 1.20346 -0.114913 0.709462 
6860.52 19145.6 284.235 0.124427 0.0118818 0.0733446 
6840.9 19351 284.235 1.30989 0.252456 0.782777 
6572.48 20126.6 284.235 1.18565 0.611244 0.782832 
6559.31 20119 310.117 1.11153 0.573032 0.733893 
6321.88 20452.4 310.117 0.905082 0.862992 0.733873 
6333.37 20462.4 284.235 0.965422 0.920525 0.782798 
5858.74 20853.7 310.117 0.687764 1.19123 0.807287 
5866.96 20866.5 284.235 0.604463 1.04695 0.709509 
6644.64 19523.1 401.334 0.0812735 0.00719388 0.432487 
6700.66 19139.4 401.334 0.324329 0.031401 1.28477 
6687.69 19042.5 401.968 0.443626 -0.0441471 2.32861 
6700.66 18945.6 401.334 0.32432 -0.0314004 1.28474 
6740.48 18743.7 386.351 0.0734052 -0.00710703 0.290783 
6787.08 18534.9 310.117 0.206702 -0.039839 0.168227 
6702.09 18547.7 386.351 0.358865 -0.107088 1.4772 
6520.84 17968.4 352.966 0.599793 -0.314799 1.0356 
6452.36 18103 401.968 0.00510095 -0.00241257 0.157218 
6448.54 17793.6 310.117 0.188327 -0.121031 0.176147 
6367.32 17827.2 386.351 0.125003 -0.100395 0.24512 
6351.81 17935.2 401.968 0.00641544 -0.00475794 0.221911 
6102.68 17528.5 386.351 0.241494 -0.286241 1.47722 
6062.39 17571.9 401.334 0.208756 -0.247437 1.27696 
5949.99 17399.7 386.351 0.0475835 -0.0564002 0.291068 
5785.58 17286.2 386.351 0.077916 -0.14012 0.245112 
5801.95 17385.4 401.968 0.00483227 -0.00806217 0.258828 
5633.64 17143.3 352.966 0.612346 -1.34086 1.13735 
5681.3 17128.8 310.117 0.318171 -0.696703 0.590959 
5427.84 17109.4 386.351 0.0495447 -0.152479 0.24511 
5237.85 17047.6 386.351 0.0228032 -0.0701793 0.291064 
5457.39 17201.2 401.968 0.00347232 -0.00970431 0.282096 
5102.18 16928.3 310.117 0.0604032 -0.24898 0.196583 
5301.3 16976.6 310.117 0.166986 -0.688311 0.543458 
4694.71 16957.2 377.375 0.0136246 -0.21559 0.33064 
5032.82 17062.8 401.334 0.0390205 -0.321387 1.277 
5981.02 20725.8 352.966 0.819644 1.15104 1.09685 
6137.48 20593.8 352.966 0.103386 0.122541 0.245115 
5494.92 21041.3 310.117 0.102733 0.22495 0.19081 
5445.96 21023.4 352.966 0.298963 0.686307 0.628985 
5610.99 20895.8 386.351 0.350711 0.630711 1.1033 
5681.3 20956.2 310.117 0.673154 1.21059 1.16066 
5633.64 20941.6 352.966 0.378823 0.681267 0.653169 
5237.85 21037.3 386.351 0.223007 0.686337 1.10333 
5301.3 21108.3 310.117 0.442351 1.3614 1.20574 
5251.27 21086.6 352.966 0.222287 0.684119 0.605899 
4694.71 21166 348.186 0.0421101 1.23258 0.865718 
5051.38 21130.8 352.966 0.220889 1.53637 1.18799 
4899.37 21185.8 310.117 0.0371272 0.258235 0.199678 
4844.46 21104.5 386.351 0.0193253 0.159158 0.245108 
5042.78 21080.4 386.351 0.106313 0.875565 1.3484 
4848.16 21155.5 352.966 0.0440175 0.696723 1.06845 
4694.71 21127.7 377.375 0.0136205 0.21559 0.330615 
5427.84 20975.6 386.351 0.0228028 0.07018 0.291054 
5812.55 20842.1 352.966 0.329186 0.591994 1.03559 
5584.77 20842.8 401.334 0.0426528 0.0901831 2.73907 
6102.68 20556.4 386.351 0.568749 0.674133 1.34841 
6242.23 20413.5 386.351 0.291999 0.234513 1.47722 
6367.32 20257.7 386.351 0.687667 0.552286 1.34843 
6197.94 20374.2 401.334 0.0707855 0.0435763 0.461328 
6235.3 20306.8 401.968 0.366128 0.225392 2.38615 
6319.45 20222.9 401.334 0.0741768 0.0367265 0.454611 
6425.8 20060.6 401.334 0.286666 0.150454 1.277 
6644.97 19728.7 386.351 0.358874 0.10709 1.47722 
6589.15 19709 401.334 0.310227 0.0925739 1.27697 
6601.87 19621 401.968 0.109079 0.0446652 0.460454 
6644.97 18356.3 386.351 0.66838 -0.272134 1.1033 
6569.64 18171.2 386.351 0.816881 -0.33259 1.34839 
6615.98 18149.7 352.966 0.627391 -0.25544 1.03561 
6751.71 18535.5 352.966 0.157341 -0.0308038 0.245114 
6693.17 18339.3 352.966 1.04178 -0.310868 0.887078 
6810.85 18941.2 352.966 1.24078 0 0.998415 
6759.79 19141.8 386.351 0.715542 0 1.09447 
6759.79 18943.2 386.351 0.723471 -0.0699629 1.11071 
6791.04 18736.4 352.966 0.15913 -0.0153886 0.244305 
6825.85 18736.1 310.117 1.05268 -0.101799 0.856016 
6845.33 19144.9 310.117 1.20681 0 0.971081 
6791.04 19348.6 352.966 1.08582 0.209277 0.883703 
6787.08 19550.1 310.117 1.0749 0.210441 0.890189 
6702.09 19537.2 386.351 0.157341 0.0308033 0.245113 
6740.48 19341.2 386.351 0.877957 0.0850022 1.34851 
6810.85 19143.7 352.966 0.829675 0.0802334 1.27377 
6653.2 19936.9 310.117 1.08358 0.441185 0.958285 
6693.17 19745.6 352.966 0.201035 0.0818524 0.177789 
6569.64 19913.7 386.351 0.148491 0.0604585 0.245115 
6751.71 19549.5 352.966 0.204826 0.0611204 0.17441 
6520.84 20116.5 352.966 0.134108 0.08786 0.245114 
6408.66 20287.7 352.966 0.70071 0.459066 1.28072 
6476.8 20090.6 386.351 0.638998 0.335372 1.10329 
6615.98 19935.2 352.966 0.195215 0.102456 0.18124 
6180.49 20600.7 310.117 0.167314 0.159534 0.180624 
6280.48 20447.3 352.966 0.717582 0.576314 0.761854 
4890.05 17059.1 401.968 0.000590751 -0.0120263 0.325908 
4840.18 17039.5 401.334 0.00488609 -0.0994694 2.69557 
4848.17 16929.5 352.966 0.0052423 -0.18737 0.245873 
4694.71 16918.9 348.186 0.0253878 -0.907409 1.19073 
5051.38 16954.1 352.966 0.0314965 -0.259389 0.221147 
5445.96 17061.6 352.966 0.270515 -0.621007 1.0356 
5251.27 16998.3 352.966 0.222286 -0.684119 0.605898 
5981.02 17359.1 352.966 0.475881 -0.689423 1.2807 
5812.55 17242.8 352.966 0.118253 -0.212659 0.203891 
6180.49 17484.2 310.117 0.56569 -0.652845 0.672707 
6025.64 17350 310.117 0.153903 -0.177615 0.183018 
6280.48 17637.6 352.966 0.165553 -0.161601 0.192138 
6137.48 17491.1 352.966 0.484736 -0.473152 1.03557 
6408.66 17797.2 352.966 0.566601 -0.371209 1.0356 
6559.31 17965.9 310.117 0.195873 -0.10098 0.174041 
-1419.62 17425.4 248.034 -0.31653 -0.0234503 0.107403 
-1487.37 19042.5 251.509 -0.219847 -0.00375623 0.0737716 
-1445.53 17810.1 255.671 -0.200802 -0.00949022 0.0673809 
-1473.17 18452.7 263.816 -1.48927 -0.0703855 0.499739 
-1527.17 19042.5 127.87 -1.48309 -0.0212419 0.477356 
-1435.86 17132.4 124.244 -1.73813 -0.155362 0.336655 
-1517.23 18452.7 132.501 -0.328448 -0.0149994 0.0668028 
-1488.72 17810.1 128.369 -0.458051 -0.0209181 0.0931626 
-1461.99 17425.4 124.523 -0.409099 -0.0366262 0.140982 
-1399.31 17167.4 239.384 -1.31068 -0.117343 0.451681 
4840.18 21045.5 401.334 0.00889455 0.0732533 0.291065 
5032.82 21022.1 401.334 0.000535959 0.00441402 0.0945144 
5457.39 20883.7 401.968 0.0537795 0.123455 2.8236 
5222.3 20980.2 401.334 0.022803 0.07018 0.291057 
5406.86 20920.3 401.334 0.122848 0.378084 1.56803 
5273.24 20949.6 401.968 0.0412915 0.127081 2.81368 
5801.95 20699.6 401.968 0.00483228 0.00806216 0.258826 
5914.07 20638.2 401.334 0.225826 0.327163 1.56804 
5949.99 20685.2 386.351 0.0419184 0.060729 0.291064 
5785.58 20798.7 386.351 0.146141 0.262815 1.18614 
5754.36 20748.4 401.334 0.0023597 0.0042436 0.101398 
6062.39 20513.1 401.334 0.066961 0.0738811 2.75946 
5959.04 20583.1 401.968 0.088493 0.104889 2.8465 
6351.81 20149.7 401.968 0.00641544 0.00475794 0.221911 
6515.98 19888.8 401.334 0.0900529 0.0425919 2.77542 
6535.98 19805.2 401.968 0.00545885 0.00195319 0.161699 
6649.39 19431.3 401.968 0.00673266 0.00168646 0.193721 
6681.93 19332.6 401.334 0.0984904 0.0146094 2.78059 
6681.93 18752.3 401.334 0.0984914 -0.0146094 2.78059 
6644.64 18561.9 401.334 0.390123 -0.0763772 1.56803 
6601.87 18463.9 401.968 0.00675648 -0.00241748 0.200144 
6515.98 18196.2 401.334 0.00685656 -0.00279166 0.151819 
6589.15 18375.9 401.334 0.00685501 -0.00204555 0.146526 
6425.8 18024.3 401.334 0.0854594 -0.0512228 2.77245 
6476.8 17994.3 386.351 0.266267 -0.139748 1.18613 
6197.94 17710.7 401.334 0.00373202 -0.00364287 0.107847 
6242.23 17671.5 386.351 0.234465 -0.188309 1.18616 
6319.45 17862 401.334 0.00416901 -0.00334831 0.110282 
5914.07 17446.7 401.334 0.0419184 -0.0607288 0.291062 
5754.36 17336.5 401.334 0.225829 -0.327167 1.56805 
5959.04 17501.9 401.968 0.088504 -0.104902 2.84653 
5634.19 17284.8 401.968 0.00420392 -0.00888858 0.26997 
5406.86 17164.7 401.334 0.158762 -0.36446 1.56806 
5610.99 17189.1 386.351 0.149564 -0.343346 1.47722 
5584.77 17242.2 401.334 0.193194 -0.347434 1.56806 
5083.52 17087.8 401.968 0.0285909 -0.129373 2.80239 
5222.3 17104.7 401.334 0.0159233 -0.0720528 0.291066 
5042.78 17004.5 386.351 0.0159229 -0.072053 0.291072 
-1064.17 16838.1 217.96 -4.10885e-07 -1.2086 0.658684 
4694.71 16874.2 284.235 -3.91249e-09 -0.0115085 0.00627205 
-1074.51 16806 147.994 -0.000168817 -1.53851 0.577305 
-1080.87 16778.7 75.2256 -0.000152545 -1.39022 0.521661 
4694.71 16786.8 98.2917 0.000236915 -1.49711 0.461315 
4694.71 16826.1 193.315 -1.4348e-06 -0.0121374 0.00555919 
6190.98 20611.7 284.235 0.874946 0.834263 0.709475 
3 59 46 62 
3 19 58 0 
3 38 39 82 
3 161 48 160 
3 32 55 36 
3 16 13 351 
3 1 2 15 
3 56 3 61 
3 32 3 6 
3 196 9 54 
3 136 82 4 
3 44 5 45 
3 32 6 7 
3 8 192 54 
3 9 10 54 
3 192 191 54 
3 69 72 413 
3 197 196 54 
3 168 197 54 
3 21 168 54 
3 136 4 27 
3 10 17 54 
3 44 85 11 
3 12 20 54 
3 351 13 14 
3 290 15 16 
3 17 8 54 
3 32 58 55 
3 290 16 351 
3 54 7 25 
3 146 2 1 
3 1 15 290 
3 146 18 2 
3 43 82 136 
3 35 19 40 
3 22 48 133 
3 32 66 0 
3 20 21 54 
3 169 12 54 
3 44 34 85 
3 62 51 50 
3 155 48 22 
3 24 48 23 
3 49 48 24 
3 54 25 39 
3 37 59 26 
3 44 11 30 
3 32 0 58 
3 27 4 48 
3 28 48 152 
3 42 29 82 
3 44 30 41 
3 133 48 31 
3 31 48 161 
3 129 23 48 
3 27 48 155 
3 48 4 80 
3 414 52 53 
3 32 53 66 
3 160 48 33 
3 48 80 34 
3 169 54 39 
3 62 35 51 
3 33 48 28 
3 32 36 3 
3 48 34 44 
3 413 72 414 
3 44 108 5 
3 67 59 37 
3 59 62 26 
3 38 169 39 
3 54 32 7 
3 40 19 0 
3 44 41 108 
3 65 68 69 
3 29 38 82 
3 414 32 54 
3 414 53 32 
3 67 61 59 
3 152 48 47 
3 42 82 43 
3 44 45 101 
3 62 46 35 
3 372 67 37 
3 69 413 411 
3 65 69 411 
3 47 48 49 
3 64 50 51 
3 51 35 73 
3 52 66 53 
3 191 190 54 
3 46 19 35 
3 36 55 60 
3 73 35 40 
3 61 57 36 
3 6 3 56 
3 3 57 61 
3 55 58 19 
3 36 60 46 
3 59 61 46 
3 60 55 19 
3 46 60 19 
3 3 36 57 
3 61 36 46 
3 68 51 73 
3 67 56 61 
3 368 6 56 
3 368 56 67 
3 26 62 50 
3 40 0 66 
3 73 40 52 
3 65 411 63 
3 64 51 68 
3 64 68 65 
3 52 40 66 
3 372 368 67 
3 68 72 69 
3 302 70 308 
3 302 234 71 
3 70 302 71 
3 68 73 72 
3 72 52 414 
3 73 52 72 
3 308 70 75 
3 308 75 74 
3 74 76 77 
3 74 75 76 
3 77 76 78 
3 79 367 364 
3 86 80 87 
3 34 80 86 
3 87 4 79 
3 87 79 81 
3 4 82 79 
3 79 82 367 
3 81 79 83 
3 79 364 83 
3 115 86 84 
3 86 87 84 
3 84 87 81 
3 85 34 114 
3 114 34 86 
3 114 86 115 
3 80 4 87 
3 89 88 224 
3 88 89 90 
3 89 92 99 
3 99 92 91 
3 104 88 90 
3 90 89 99 
3 91 48 44 
3 92 48 91 
3 93 85 114 
3 119 116 94 
3 95 96 97 
3 118 30 93 
3 109 30 118 
3 41 30 109 
3 96 103 110 
3 98 99 106 
3 90 99 98 
3 98 106 102 
3 100 44 101 
3 111 5 108 
3 102 111 103 
3 110 109 118 
3 118 93 119 
3 120 104 98 
3 104 90 98 
3 96 105 103 
3 95 105 96 
3 91 44 100 
3 106 91 100 
3 99 91 106 
3 107 101 45 
3 107 45 111 
3 102 107 111 
3 102 106 107 
3 106 100 107 
3 100 101 107 
3 111 45 5 
3 108 41 112 
3 112 41 109 
3 112 109 110 
3 103 112 110 
3 103 111 112 
3 111 108 112 
3 113 11 93 
3 30 113 93 
3 11 85 93 
3 117 114 115 
3 117 115 116 
3 119 117 116 
3 119 93 117 
3 93 114 117 
3 121 94 97 
3 105 102 103 
3 110 118 121 
3 121 118 119 
3 121 119 94 
3 95 120 105 
3 120 98 105 
3 105 98 102 
3 97 96 121 
3 96 110 121 
3 147 122 408 
3 145 77 146 
3 146 77 18 
3 404 127 375 
3 404 375 287 
3 147 378 122 
3 123 389 124 
3 124 389 151 
3 321 388 393 
3 393 388 125 
3 150 386 277 
3 386 316 277 
3 316 148 126 
3 126 148 149 
3 385 379 282 
3 282 379 127 
3 224 128 225 
3 229 24 23 
3 229 23 129 
3 163 49 164 
3 230 228 226 
3 212 152 213 
3 236 214 231 
3 162 33 130 
3 216 131 265 
3 161 132 158 
3 417 263 219 
3 133 159 156 
3 134 260 217 
3 155 157 135 
3 239 221 223 
3 136 153 137 
3 138 259 154 
3 42 206 205 
3 258 257 209 
3 170 172 38 
3 203 242 173 
3 202 201 12 
3 139 254 207 
3 177 199 21 
3 140 141 178 
3 175 244 176 
3 251 167 252 
3 142 143 181 
3 247 144 183 
3 188 416 189 
3 412 416 188 
3 77 78 18 
3 348 145 146 
3 408 145 348 
3 408 122 145 
3 287 378 147 
3 287 375 378 
3 282 127 404 
3 385 282 403 
3 149 385 403 
3 148 385 149 
3 277 316 126 
3 150 277 274 
3 125 150 274 
3 388 150 125 
3 151 321 393 
3 389 321 151 
3 268 123 124 
3 162 160 33 
3 212 28 152 
3 163 47 49 
3 29 170 38 
3 205 170 29 
3 205 173 170 
3 43 206 42 
3 43 137 206 
3 137 209 206 
3 27 153 136 
3 27 135 153 
3 135 154 153 
3 22 157 155 
3 22 156 157 
3 156 223 157 
3 31 159 133 
3 31 158 159 
3 158 217 159 
3 160 132 161 
3 160 162 132 
3 162 219 132 
3 130 33 28 
3 130 28 212 
3 131 130 212 
3 213 152 47 
3 213 47 163 
3 214 213 163 
3 164 49 24 
3 164 24 229 
3 228 164 229 
3 92 129 48 
3 165 190 191 
3 165 191 184 
3 144 165 184 
3 193 192 8 
3 193 8 166 
3 143 193 166 
3 194 17 10 
3 194 10 195 
3 167 194 195 
3 200 9 196 
3 21 199 168 
3 12 201 20 
3 38 172 169 
3 42 205 29 
3 136 137 43 
3 155 135 27 
3 133 156 22 
3 161 158 31 
3 171 207 172 
3 170 171 172 
3 173 171 170 
3 173 242 171 
3 254 140 174 
3 174 140 178 
3 174 178 201 
3 202 174 201 
3 207 174 202 
3 207 254 174 
3 141 175 179 
3 179 175 176 
3 179 176 199 
3 177 179 199 
3 178 179 177 
3 178 141 179 
3 252 180 244 
3 252 167 180 
3 167 195 180 
3 180 195 200 
3 180 200 176 
3 244 180 176 
3 181 182 251 
3 181 143 182 
3 143 166 182 
3 182 166 194 
3 182 194 167 
3 251 182 167 
3 183 185 142 
3 183 144 185 
3 144 184 185 
3 185 184 193 
3 185 193 143 
3 142 185 143 
3 186 187 247 
3 186 188 187 
3 188 189 187 
3 187 189 165 
3 187 165 144 
3 247 187 144 
3 412 188 186 
3 416 415 189 
3 415 54 189 
3 189 54 190 
3 189 190 165 
3 184 191 192 
3 184 192 193 
3 166 8 17 
3 166 17 194 
3 195 10 9 
3 195 9 200 
3 198 196 197 
3 168 198 197 
3 199 198 168 
3 199 176 198 
3 176 200 198 
3 200 196 198 
3 20 177 21 
3 201 177 20 
3 201 178 177 
3 169 202 12 
3 172 202 169 
3 172 207 202 
3 257 203 204 
3 204 203 173 
3 204 173 205 
3 206 204 205 
3 206 209 204 
3 209 257 204 
3 242 139 171 
3 171 139 207 
3 208 258 209 
3 137 208 209 
3 153 208 137 
3 153 154 208 
3 154 259 208 
3 210 164 228 
3 230 210 228 
3 265 211 236 
3 265 131 211 
3 131 212 211 
3 211 212 213 
3 211 213 214 
3 236 211 214 
3 417 215 216 
3 417 219 215 
3 219 162 215 
3 215 162 130 
3 215 130 131 
3 216 215 131 
3 263 134 218 
3 218 134 217 
3 158 218 217 
3 132 218 158 
3 132 219 218 
3 219 263 218 
3 260 239 220 
3 220 239 223 
3 156 220 223 
3 159 220 156 
3 159 217 220 
3 217 260 220 
3 221 138 222 
3 222 138 154 
3 135 222 154 
3 157 222 135 
3 157 223 222 
3 223 221 222 
3 259 258 208 
3 304 128 224 
3 246 249 186 
3 304 224 233 
3 224 225 89 
3 225 129 89 
3 89 129 92 
3 226 227 128 
3 226 228 227 
3 228 229 227 
3 227 229 129 
3 227 129 225 
3 128 227 225 
3 231 210 230 
3 231 214 210 
3 214 163 210 
3 210 163 164 
3 408 348 291 
3 232 1 290 
3 304 233 234 
3 235 128 304 
3 300 230 235 
3 300 231 230 
3 297 236 294 
3 297 265 236 
3 237 216 264 
3 237 417 216 
3 346 417 237 
3 263 262 238 
3 263 238 134 
3 261 338 239 
3 239 338 240 
3 239 240 221 
3 138 334 241 
3 241 332 258 
3 258 332 256 
3 258 256 257 
3 331 271 203 
3 203 271 242 
3 255 243 139 
3 139 243 254 
3 362 275 140 
3 140 275 141 
3 253 357 244 
3 358 244 357 
3 358 252 244 
3 284 181 245 
3 284 142 181 
3 289 183 250 
3 289 247 183 
3 288 247 289 
3 14 246 248 
3 248 246 186 
3 248 186 247 
3 248 247 288 
3 249 412 186 
3 250 183 142 
3 250 142 284 
3 245 181 251 
3 245 251 252 
3 245 252 358 
3 253 244 175 
3 141 253 175 
3 275 253 141 
3 254 362 140 
3 243 362 254 
3 242 255 139 
3 271 255 242 
3 257 331 203 
3 256 331 257 
3 259 241 258 
3 138 241 259 
3 221 334 138 
3 221 240 334 
3 260 261 239 
3 134 261 260 
3 134 238 261 
3 417 262 263 
3 264 216 265 
3 264 265 297 
3 294 236 231 
3 294 231 300 
3 235 230 226 
3 235 226 128 
3 336 266 389 
3 336 390 123 
3 336 389 390 
3 336 123 267 
3 328 267 329 
3 241 337 332 
3 328 336 267 
3 329 267 268 
3 270 269 124 
3 330 329 270 
3 329 269 270 
3 329 268 269 
3 330 271 331 
3 272 322 326 
3 272 392 322 
3 151 393 392 
3 326 243 255 
3 323 397 273 
3 323 394 397 
3 125 274 394 
3 273 275 362 
3 276 399 359 
3 276 400 399 
3 277 126 400 
3 253 359 357 
3 278 280 355 
3 278 279 280 
3 149 403 279 
3 355 245 358 
3 281 406 283 
3 281 402 406 
3 282 404 402 
3 283 250 284 
3 285 286 354 
3 285 405 286 
3 287 147 405 
3 354 288 289 
3 410 232 350 
3 350 232 290 
3 410 291 232 
3 292 237 264 
3 292 264 310 
3 292 310 382 
3 292 382 381 
3 293 292 381 
3 293 237 292 
3 298 297 294 
3 298 294 295 
3 298 295 309 
3 298 309 296 
3 310 298 296 
3 310 297 298 
3 301 300 235 
3 301 235 303 
3 301 303 306 
3 301 306 299 
3 295 301 299 
3 295 300 301 
3 302 304 234 
3 307 304 302 
3 303 304 307 
3 303 235 304 
3 350 351 248 
3 307 302 308 
3 306 305 373 
3 303 305 306 
3 145 373 77 
3 303 307 305 
3 307 308 305 
3 295 299 309 
3 309 299 376 
3 378 376 122 
3 295 294 300 
3 310 296 382 
3 382 296 311 
3 127 311 375 
3 310 264 297 
3 293 381 312 
3 312 381 380 
3 385 380 379 
3 346 237 293 
3 314 313 315 
3 343 313 314 
3 314 316 317 
3 344 314 317 
3 316 315 148 
3 314 315 316 
3 262 343 238 
3 344 317 386 
3 340 344 318 
3 345 344 340 
3 344 386 318 
3 340 318 150 
3 319 340 387 
3 340 150 387 
3 261 345 338 
3 319 387 388 
3 335 319 320 
3 341 319 335 
3 319 388 320 
3 335 320 321 
3 336 335 266 
3 335 321 266 
3 240 341 334 
3 326 322 324 
3 322 323 324 
3 324 323 273 
3 324 273 362 
3 325 255 271 
3 330 325 271 
3 330 270 325 
3 325 270 272 
3 325 272 326 
3 325 326 255 
3 327 331 256 
3 337 327 256 
3 337 328 327 
3 327 328 329 
3 327 329 330 
3 327 330 331 
3 332 337 256 
3 334 333 241 
3 334 341 333 
3 333 341 335 
3 333 335 336 
3 333 336 328 
3 337 333 328 
3 241 333 337 
3 338 339 240 
3 338 345 339 
3 339 345 340 
3 339 340 319 
3 341 339 319 
3 240 339 341 
3 238 342 261 
3 238 343 342 
3 342 343 314 
3 342 314 344 
3 345 342 344 
3 261 342 345 
3 262 346 347 
3 347 346 293 
3 347 293 312 
3 347 312 313 
3 343 347 313 
3 343 262 347 
3 405 409 286 
3 405 147 409 
3 348 146 349 
3 349 146 1 
3 232 349 1 
3 291 349 232 
3 291 348 349 
3 350 290 351 
3 351 14 248 
3 352 248 288 
3 352 288 354 
3 354 286 352 
3 286 410 352 
3 352 410 350 
3 350 248 352 
3 353 289 250 
3 353 250 283 
3 283 406 353 
3 406 285 353 
3 353 285 354 
3 354 289 353 
3 356 284 245 
3 355 356 245 
3 355 280 356 
3 280 281 356 
3 356 281 283 
3 283 284 356 
3 357 360 358 
3 359 360 357 
3 359 399 360 
3 399 278 360 
3 360 278 355 
3 360 355 358 
3 361 253 275 
3 273 361 275 
3 273 397 361 
3 397 276 361 
3 361 276 359 
3 361 359 253 
3 324 362 243 
3 326 324 243 
3 370 363 365 
3 370 371 363 
3 371 372 363 
3 364 369 366 
3 369 365 366 
3 367 82 39 
3 367 39 369 
3 364 367 369 
3 25 7 370 
3 370 7 371 
3 7 6 371 
3 371 6 368 
3 369 25 370 
3 39 25 369 
3 369 370 365 
3 371 368 372 
3 373 74 77 
3 305 74 373 
3 305 308 74 
3 122 374 145 
3 376 374 122 
3 299 374 376 
3 299 306 374 
3 306 373 374 
3 374 373 145 
3 375 377 378 
3 311 377 375 
3 296 377 311 
3 296 309 377 
3 309 376 377 
3 377 376 378 
3 379 383 127 
3 380 383 379 
3 381 383 380 
3 381 382 383 
3 382 311 383 
3 383 311 127 
3 148 384 385 
3 315 384 148 
3 313 384 315 
3 313 312 384 
3 312 380 384 
3 384 380 385 
3 386 317 316 
3 150 318 386 
3 388 387 150 
3 321 320 388 
3 389 266 321 
3 390 389 123 
3 267 123 268 
3 269 268 124 
3 391 124 151 
3 391 151 392 
3 272 391 392 
3 270 391 272 
3 270 124 391 
3 393 125 395 
3 395 125 394 
3 395 394 323 
3 322 395 323 
3 322 392 395 
3 392 393 395 
3 274 277 396 
3 396 277 400 
3 396 400 276 
3 397 396 276 
3 394 396 397 
3 394 274 396 
3 126 149 398 
3 398 149 279 
3 398 279 278 
3 399 398 278 
3 400 398 399 
3 400 126 398 
3 403 282 401 
3 401 282 402 
3 401 402 281 
3 280 401 281 
3 279 401 280 
3 279 403 401 
3 404 287 407 
3 407 287 405 
3 407 405 285 
3 406 407 285 
3 402 407 406 
3 402 404 407 
3 147 408 409 
3 409 408 291 
3 409 291 410 
3 286 409 410 
3 63 411 412 
3 412 411 416 
3 413 414 415 
3 415 414 54 
3 416 413 415 
3 411 413 416 
3 417 346 262 
