ply
format ascii 1.0
comment VCGLIB generated
element vertex 233
property float x
property float y
property float z
property float nx
property float ny
property float nz
element face 354
property list uchar int vertex_indices
end_header
6723.58 18948.7 8007.08 0.393346 -0.149312 1.46831 
6723.58 18858.7 7978.86 0.0178913 -0.0200981 0.0640567 
6723.58 18704.8 7871.7 1.05741 -0.692059 0.806152 
6717.23 18858.1 7980.42 0.379769 -0.691683 1.24619 
6723.58 18776.3 7933.11 0.0178885 -0.0325808 0.0586998 
6717.23 18703.6 7872.88 0.0178926 -0.05309 0.0410941 
6723.58 18581.9 7621.26 0.393375 -1.42883 0.369947 
6717.23 18580.3 7621.52 0.379879 -1.42352 0.0721745 
6723.58 18577.2 7527.12 0.0178927 -0.0670492 0.00339949 
6728.23 18586.5 7620.56 1.15832 -1.16295 0.0589726 
6723.58 18605.6 7712.52 0.411379 -1.49388 0.386795 
6723.58 18591.4 7433.93 0.393283 -1.38406 -0.512594 
6723.58 18674 7265.53 0.393402 -1.06983 -1.01695 
6717.23 18672.7 7264.49 0.39777 -1.0817 -1.02824 
6723.58 18995.3 7087.2 0.0492248 -0.00995881 -0.0484597 
6723.58 18816.4 7143.35 1.05746 -0.419229 -0.976909 
6723.58 18903 7106.18 0.0178979 -0.0264756 -0.0616947 
6717.23 19182.5 7104.56 0.0179 0.0135144 -0.0657617 
6723.58 19268.6 7143.35 0.0492308 0.0195099 -0.045463 
6723.58 19410.9 7265.53 0.393402 1.06984 -1.01693 
6717.23 19495.1 7433.51 0.398101 1.39949 -0.51834 
6728.23 19489 7435.1 1.10918 1.10194 -0.168817 
6723.58 19493.5 7433.93 0.0178931 0.0629561 -0.0233165 
6717.23 19504.7 7621.52 0.379904 1.3799 0.357285 
6723.58 19503 7621.26 1.05726 1.06149 0.0538409 
6728.23 19498.4 7620.56 1.1091 1.11353 0.0564808 
6723.58 19437.9 7797.16 0.411234 1.22019 0.944479 
6717.23 19439.3 7798.06 0.379907 1.12724 0.872531 
6723.58 19380.2 7871.7 1.05772 0.840373 0.650483 
6728.23 19433.9 7794.7 1.10917 1.00079 0.490916 
6723.58 19479.4 7712.52 0.411369 1.38535 0.679552 
6723.58 19308.6 7933.11 0.393487 0.961352 1.11982 
6723.58 19226.2 7978.86 0.0492294 0.024009 0.0432564 
6728.23 19376.8 7868.5 0.0492305 0.0322255 0.0375376 
6728.23 19306 7929.29 1.15845 0.758301 0.883301 
6723.58 19136.3 8007.08 0.393368 0.441888 1.40839 
6723.58 19042.5 8016.61 0.0178931 0.00679185 0.0667925 
6728.23 19042.5 8011.96 1.1092 0.112778 1.10908 
6728.23 19135.3 8002.52 1.1584 0.117781 1.1583 
6729.93 19137 7995.67 1.19048 0.0319354 0.303834 
6728.23 19224.4 7974.58 1.15829 0.348509 1.11077 
6729.93 19309.9 7918.74 2.43003 0.491781 0.572847 
6729.93 19380.5 7855.1 0.0954282 0.017102 0.0124249 
6728.23 19475 7710.91 1.15848 1.04529 0.512746 
6729.93 19494.9 7598.26 2.67796 0.979142 0.0496518 
6728.23 19503.1 7527.35 1.15842 1.16275 0.0589627 
6729.93 19380.5 7246.32 2.71635 0.807493 -0.767565 
6728.23 19342.9 7200.73 0.0702391 0.0208801 -0.0198476 
6723.58 19345.9 7197.21 1.00811 0.734394 -0.698081 
6729.93 19309.9 7182.69 0.157241 0.0152429 -0.0264018 
6728.23 19089.1 7091.83 0.0492221 0 -0.0494715 
6723.58 19181.9 7106.18 1.00815 0.203945 -0.992396 
6728.23 19180.6 7110.61 0.0913232 0.00783209 -0.0381109 
6728.23 18677.7 7268.38 0.0492228 -0.0358582 -0.0340851 
6728.23 18742 7200.73 1.10913 -0.636811 -0.914952 
6728.23 18818.6 7147.42 1.1584 -0.665313 -0.955872 
6729.93 18648.5 7323.26 0.27298 -0.0497838 -0.0221657 
6728.23 18628.4 7347.58 0.0668201 -0.0244702 -0.00906293 
6729.93 18609.8 7410.14 2.70658 -0.991177 -0.367098 
6729.93 18590.1 7503.16 0.328213 -0.0676979 0 
6729.93 18648.5 7778.16 0.101945 -0.0200803 0.00894055 
6728.23 18609.9 7710.91 0.247768 -0.0846059 0.0219074 
6728.23 18708.2 7868.5 0.0654903 -0.0132537 0.0154384 
6729.93 18947.9 7995.67 0.0771518 -0.00585887 0.018032 
6729.93 19042.5 8005.61 1.54319 0.0420535 0.413567 
6728.23 18949.6 8002.52 0.0680438 -0.0018543 0.0182354 
6717.23 18948.3 8008.74 0.0178906 -0.0200982 0.0640569 
6723.58 18647.1 7797.16 1.05738 -0.840355 0.650469 
6723.58 18624.2 7345.53 0.393384 -1.25254 -0.780717 
6723.58 18739 7197.21 0.393208 -0.843171 -1.21141 
6717.23 18815.5 7141.87 0.0178855 -0.0383525 -0.0551022 
6717.23 19269.4 7141.87 0.0178976 0.0383532 -0.0551032 
6723.58 19460.8 7345.53 0.393384 1.25254 -0.780717 
6717.23 19462.3 7344.78 0.397813 1.26664 -0.789507 
6717.23 19509.5 7527.03 0.397794 1.47527 -0.225989 
6728.23 18860.6 7974.58 0.694443 -0.0999729 0.180119 
6729.93 18857.4 7966.29 0.0830503 -0.00981717 0.017004 
6728.23 18779 7929.29 0.0492307 -0.0240089 0.0432563 
6728.23 18651 7794.7 0.06501 -0.0167026 0.0129289 
6729.93 18590.1 7598.26 0.36548 -0.0752678 0.0159994 
6728.23 18595.9 7435.1 0.0492036 -0.0489013 -0.00749162 
6728.23 18581.8 7527.35 1.15818 -1.15107 -0.176342 
6728.23 18995.8 7091.83 1.15838 -0.23436 -1.14039 
6728.23 18904.4 7110.61 0.0492231 -0.0099587 -0.048459 
6723.58 19089.6 7087.2 0.411408 0 -1.54335 
6728.23 19266.3 7147.42 0.0728072 0.0173595 -0.0249408 
6729.93 19436.4 7323.26 2.71304 0.923006 -0.575338 
6728.23 19407.2 7268.38 0.0683094 0.0232396 -0.014486 
6728.23 19456.6 7347.58 2.67678 0.488067 -0.217306 
6723.58 19507.8 7527.12 1.00819 1.00158 -0.15344 
6729.93 19227.5 7966.29 2.2511 0.324027 0.583779 
6012.17 18587.4 7658.44 0.000540977 -0.144321 0.037367 
6645.48 18645.6 7798.06 0.00506244 -1.35754 0.665888 
5997.46 18626.9 7764.8 0.000487849 -0.130821 0.0641692 
6050 19477.8 7379.92 -0.00302545 1.22916 -0.59282 
6019.85 18577.8 7602.44 0.00355285 -1.4642 0.0714505 
6645.48 18902.5 7104.56 0.00441122 -0.569328 -1.32668 
6106.75 18838.6 7130.2 -0.00451175 -0.840134 -1.44905 
5984.51 19395.2 7857.51 0.000332075 0.112817 0.0873257 
6645.48 19309.6 7934.5 1.32337e-05 0.0531151 0.0666184 
5973.8 19311 7933.55 0.000230741 0.926108 1.16155 
5990.8 19429.7 7812.56 -0.00181244 1.22614 0.726023 
6645.48 19439.3 7798.06 -0.000110743 0.0749191 0.044361 
5997.59 19458.6 7763.83 -0.00207266 1.40218 0.830259 
5962.28 19100 8014.75 0.000460706 0.0139846 0.137522 
6645.48 19042.5 8018.31 0.00495482 0.150402 1.47902 
6059.96 18637.4 7317.09 0.000578747 -0.13673 -0.0852247 
6645.48 18672.7 7264.49 0.00525565 -1.24166 -0.773933 
6645.48 18589.8 7433.51 0.00516993 -1.46116 -0.223858 
6645.48 18580.3 7621.52 0.00316861 -1.44663 0.0733786 
6027.59 18575.1 7545.74 0.000333595 -0.152304 0.0077254 
6645.48 18575.5 7527.03 0.00337008 -1.53861 0.0780442 
6035.27 18579.1 7489.19 -0.00015004 -1.32179 -0.255405 
6042.78 18589.8 7433.63 -0.00018979 -1.67196 -0.323069 
6050 18607.2 7379.92 0.000615837 -0.148647 -0.0550525 
6645.48 18622.7 7344.78 0.00585292 -1.41274 -0.523219 
6071.69 18676.6 7259.52 0.00125675 -1.03064 -0.95513 
6084.08 18723.8 7208.58 0.00144288 -1.18328 -1.09658 
6645.48 18737.9 7195.92 0.00580053 -0.844816 -1.21377 
6096.06 18778.2 7165.21 0.000673749 -0.0981279 -0.140983 
6645.48 18815.5 7141.87 0.00584808 -0.851741 -1.22372 
6115.27 18903.5 7104.35 -0.00010528 -0.338248 -1.45599 
6120.76 18971.9 7088.47 -0.000106627 -0.342577 -1.47462 
6645.48 18995.2 7085.51 0.00646842 0 -1.48128 
6115.35 19180.8 7104.14 9.36773e-05 0.332657 -1.46203 
6107.07 19245.8 7129.65 -0.00386752 0.839387 -1.44855 
6645.48 19269.4 7141.87 0.00629391 0.852462 -1.22479 
6096.34 19306.2 7164.66 0.000724847 0.0981749 -0.141054 
6084.21 19360.7 7208.21 0.00153844 1.18199 -1.09723 
6071.74 19408.1 7259.26 -0.00135421 1.42658 -0.971835 
6645.48 19462.3 7344.78 0.00546008 1.28745 -0.802479 
6645.48 19412.2 7264.49 0.00526681 1.24188 -0.774075 
6059.98 19447.4 7316.95 0.000579898 0.136736 -0.0852288 
6645.48 18948.3 8008.74 -9.74747e-05 -0.0151437 0.0824347 
5962.26 18986.2 8014.89 -0.00173173 -0.269044 1.46453 
5963.73 18929.8 8004.54 0.00350082 -0.46643 1.48433 
5966.17 18875.4 7987.42 0.00337958 -0.450276 1.43292 
5973.74 18774.8 7934.02 -0.00030717 -0.85684 1.40234 
5966.23 19210.7 7987.01 0.00335438 0.495225 1.56285 
6645.48 19226.9 7980.42 0.00344455 0.437642 1.39485 
6645.48 19136.6 8008.74 0.00363174 0.461425 1.47065 
6035.3 19505.8 7488.96 -0.000186808 1.32217 -0.255258 
6645.48 19495.1 7433.51 -1.27902e-05 0.0905247 -0.0174768 
6042.79 19495.1 7433.56 -0.000236229 1.67194 -0.322787 
6645.48 19089.8 7085.51 0.0045016 0.307513 -1.49637 
6120.6 19112.3 7088.56 0.000528589 0.0361089 -0.175707 
6122.51 19042.1 7083.23 -0.00383299 0.11401 -1.50259 
5990.65 18655.9 7813.61 -0.00193692 -1.22355 0.726822 
6027.65 19509.8 7545.3 0.00373641 1.58147 0.075762 
6019.94 19507.1 7601.78 -0.00241839 1.65003 0.279168 
6645.48 19481 7713.11 1.02611e-05 0.0855963 0.0256046 
6012.28 19497.6 7657.59 0.000185009 1.54332 0.461657 
6004.79 19481.4 7711.93 0.000165539 1.3809 0.413072 
6645.48 19347.1 7195.92 -0.00024298 0.0786594 -0.0985453 
5963.77 19156.2 8004.26 -0.00184069 0.287496 1.5408 
5969.59 19262.4 7963.34 0.000480722 0.0678119 0.122178 
6645.48 19182.5 7104.56 0.00519092 0.569809 -1.3278 
6645.48 18703.6 7872.88 0.000205051 -0.068373 0.0526946 
5984.37 18690.5 7858.51 0.00353845 -1.17987 0.90932 
6645.48 18858.1 7980.42 -0.000100792 -0.0349474 0.0766539 
5978.71 18730.2 7898.79 0.000483707 -0.092251 0.107457 
6645.48 18604 7713.11 -6.80059e-06 -0.0856625 0.0259772 
6004.66 18603.9 7712.83 -0.000109395 -1.37797 0.417872 
5978.81 19355.5 7898.05 0.000473916 0.0922606 0.107469 
6645.48 19381.4 7872.88 -0.000112366 0.0609608 0.0597423 
6645.48 19504.7 7621.52 0.00291354 1.44592 0.0733426 
6645.48 19509.5 7527.03 0.00310174 1.53932 0.07808 
5961.77 19043.1 8018.31 -9.3831e-05 -0.0938061 1.55843 
5969.53 18823.4 7963.74 0.000459781 -0.0678041 0.122163 
6645.48 18775.3 7934.5 0.00489594 -0.722006 1.30085 
6729.93 18704.4 7855.1 0.104716 0 0 
6729.93 18609.8 7691.29 0.104725 0 0 
6729.93 18704.4 7246.32 2.19911 0 0 
6729.93 18775.1 7182.69 0.83776 0 0 
6729.93 18857.4 7135.14 0.942481 0 0 
6729.93 18947.9 7105.75 1.5708 0 0 
6729.93 19042.5 7095.81 1.46607 0 0 
6729.93 19227.5 7135.14 0.942481 0 0 
6729.93 19475.1 7410.14 2.61798 0 0 
6729.93 19494.9 7503.16 2.93214 0 0 
6729.93 19475.1 7691.29 0.209449 0 0 
6729.93 19436.4 7778.16 2.40857 0 0 
6729.93 18775.1 7918.74 1.98967 0 0 
6729.93 19137 7105.75 1.25664 0 0 
6645.48 19042.5 8018.31 0 -0.0656419 0.645509 
6645.48 18775.3 7934.5 0 -1.02319 1.19184 
6717.23 18775.3 7934.5 0 -0.422641 0.492308 
6645.48 18580.3 7621.52 0 -1.56878 0.079542 
6645.48 18622.7 7344.78 0 -0.608447 -0.225342 
6645.48 18672.7 7264.49 0 -1.33305 -0.830897 
6645.48 18737.9 7195.92 0 -1.1385 -1.08223 
6645.48 18815.5 7141.87 0 -0.619458 -1.44349 
6645.48 18902.5 7104.56 0 -0.255874 -0.596251 
6717.23 18902.5 7104.56 0 -0.619458 -1.44349 
6717.23 18995.2 7085.51 0 0 -0.921963 
6645.48 18995.2 7085.51 0 0 -1.5708 
6645.48 19182.5 7104.56 0 0.255865 -0.596244 
6645.48 19269.4 7141.87 0 0.526688 -0.756708 
6717.23 19347.1 7195.92 0 0.526688 -0.756708 
6645.48 19509.5 7527.03 0 0.641354 -0.0982459 
6645.48 19495.1 7433.51 0 1.55268 -0.237848 
6645.48 19481 7713.11 0 0.628122 0.162631 
6717.23 19381.4 7872.88 0 1.02319 1.19184 
6645.48 19381.4 7872.88 0 0.600544 0.699536 
6645.48 19136.6 8008.74 0 0.19424 0.619081 
6717.23 19226.9 7980.42 0 0.19424 0.619081 
6645.48 19439.3 7798.06 0 0.729065 0.56433 
6717.23 19481 7713.11 0 0.827738 0.406035 
6645.48 19504.7 7621.52 0 0.648001 0.032869 
6645.48 19462.3 7344.78 0 1.47301 -0.545571 
6717.23 19412.2 7264.49 0 1.13851 -1.08221 
6645.48 19412.2 7264.49 0 0.668234 -0.635189 
6717.23 19089.8 7085.51 0 0.185589 -0.903086 
6645.48 19089.8 7085.51 0 0.3162 -1.53864 
6717.23 18737.9 7195.92 0 -0.370662 -0.532541 
6717.23 18589.8 7433.51 0 -0.608447 -0.225342 
6717.23 18622.7 7344.78 0 -1.47302 -0.545542 
6645.48 18589.8 7433.51 0 -0.91133 -0.139602 
6645.48 18575.5 7527.03 0 -1.55268 -0.237848 
6717.23 18575.5 7527.03 0 -0.91133 -0.139602 
6645.48 18604 7713.11 0 -1.52065 0.393721 
6717.23 18604 7713.11 0 -0.89253 0.23109 
6645.48 18645.6 7798.06 0 -0.729065 0.56433 
6717.23 18645.6 7798.06 0 -1.24215 0.961485 
6645.48 18703.6 7872.88 0 -1.24215 0.961485 
6645.48 18858.1 7980.42 0 -0.447423 0.806127 
6645.48 18948.3 8008.74 0 -0.19424 0.619081 
6717.23 19136.6 8008.74 0 0.093273 0.917228 
6717.23 19042.5 8018.31 0 0.158915 1.56274 
6645.48 19347.1 7195.92 0 1.13851 -1.08221 
6717.23 19309.6 7934.5 0 0.447423 0.806127 
6645.48 19309.6 7934.5 0 0.762292 1.37343 
6645.48 19226.9 7980.42 0 0.314869 0.567304 
3 0 228 66 
3 0 66 1 
3 0 1 75 
3 65 0 75 
3 36 0 65 
3 36 228 0 
3 4 3 186 
3 4 186 2 
3 4 2 62 
3 77 4 62 
3 1 4 77 
3 1 3 4 
3 5 223 67 
3 223 221 67 
3 221 7 6 
3 7 8 6 
3 6 8 81 
3 6 81 9 
3 10 6 9 
3 221 6 10 
3 7 219 8 
3 11 215 216 
3 11 216 68 
3 68 80 11 
3 80 8 11 
3 8 215 11 
3 12 13 214 
3 12 214 69 
3 69 53 12 
3 53 57 12 
3 12 57 68 
3 68 13 12 
3 16 70 193 
3 16 193 14 
3 14 83 16 
3 83 55 16 
3 16 55 15 
3 15 70 16 
3 14 193 194 
3 84 212 17 
3 18 17 71 
3 18 71 48 
3 48 47 18 
3 47 85 18 
3 18 85 52 
3 18 52 51 
3 51 17 18 
3 19 198 210 
3 72 19 210 
3 72 88 19 
3 88 87 19 
3 19 87 48 
3 19 48 198 
3 22 73 20 
3 89 22 20 
3 89 21 22 
3 22 21 72 
3 22 72 73 
3 23 24 74 
3 30 24 23 
3 24 30 43 
3 24 43 25 
3 24 25 89 
3 24 89 74 
3 27 26 207 
3 28 26 27 
3 26 28 33 
3 26 33 29 
3 30 26 29 
3 26 30 207 
3 31 202 230 
3 31 230 32 
3 31 32 34 
3 33 31 34 
3 28 31 33 
3 28 202 31 
3 35 205 227 
3 35 227 36 
3 35 36 37 
3 35 37 38 
3 32 35 38 
3 32 205 35 
3 39 38 64 
3 40 38 39 
3 32 38 40 
3 41 34 90 
3 33 34 41 
3 181 29 42 
3 43 29 181 
3 30 29 43 
3 25 180 44 
3 45 25 44 
3 25 45 89 
3 179 178 21 
3 21 178 88 
3 21 88 72 
3 86 46 87 
3 87 46 47 
3 87 47 48 
3 49 177 85 
3 85 177 52 
3 183 176 50 
3 50 176 82 
3 82 14 50 
3 50 14 84 
3 51 50 84 
3 51 52 50 
3 52 183 50 
3 175 174 83 
3 83 174 55 
3 173 172 54 
3 54 172 53 
3 54 53 69 
3 15 54 69 
3 55 54 15 
3 55 173 54 
3 56 58 57 
3 57 58 80 
3 57 80 68 
3 79 81 59 
3 79 9 81 
3 60 61 171 
3 78 61 60 
3 78 67 61 
3 67 10 61 
3 61 10 9 
3 61 9 171 
3 182 62 170 
3 77 62 182 
3 63 75 76 
3 65 75 63 
3 36 227 228 
3 37 36 65 
3 38 37 64 
3 64 37 65 
3 64 65 63 
3 1 66 3 
3 2 186 5 
3 5 67 2 
3 2 67 78 
3 62 2 78 
3 67 221 10 
3 8 219 215 
3 68 216 13 
3 69 214 70 
3 14 194 212 
3 84 17 51 
3 48 71 198 
3 72 210 73 
3 89 20 74 
3 207 30 23 
3 202 28 27 
3 32 230 205 
3 75 77 76 
3 76 77 182 
3 75 1 77 
3 62 78 170 
3 170 78 60 
3 171 9 79 
3 80 59 81 
3 58 59 80 
3 80 81 8 
3 53 56 57 
3 172 56 53 
3 69 70 15 
3 174 173 55 
3 82 175 83 
3 176 175 82 
3 82 83 14 
3 14 212 84 
3 177 183 52 
3 47 49 85 
3 46 49 47 
3 88 86 87 
3 178 86 88 
3 45 179 21 
3 45 44 179 
3 89 45 21 
3 25 43 180 
3 180 43 181 
3 29 33 42 
3 42 33 41 
3 34 40 90 
3 90 40 39 
3 34 32 40 
3 161 91 109 
3 92 93 161 
3 142 130 94 
3 94 130 132 
3 131 153 128 
3 109 95 110 
3 120 97 96 
3 120 119 97 
3 164 102 98 
3 99 163 100 
3 99 100 155 
3 101 102 103 
3 98 102 101 
3 140 104 105 
3 115 106 107 
3 114 106 115 
3 111 112 108 
3 110 112 111 
3 109 110 111 
3 112 113 108 
3 113 114 108 
3 108 114 115 
3 106 116 107 
3 107 116 117 
3 118 117 119 
3 118 119 120 
3 96 97 121 
3 96 121 122 
3 123 122 146 
3 123 146 144 
3 156 145 124 
3 156 124 125 
3 126 125 127 
3 126 127 153 
3 131 128 129 
3 132 131 129 
3 130 131 132 
3 133 134 135 
3 133 135 136 
3 133 136 159 
3 169 168 137 
3 139 138 154 
3 139 154 140 
3 141 142 143 
3 166 142 141 
3 148 166 141 
3 144 145 156 
3 144 146 145 
3 96 122 123 
3 150 165 151 
3 147 93 92 
3 102 150 103 
3 165 148 149 
3 151 165 149 
3 150 151 152 
3 103 150 152 
3 153 127 128 
3 169 137 160 
3 160 158 157 
3 91 95 109 
3 140 154 104 
3 99 155 139 
3 139 155 138 
3 105 134 133 
3 143 142 94 
3 156 125 126 
3 157 158 147 
3 157 147 92 
3 159 136 168 
3 169 160 157 
3 93 162 161 
3 161 162 91 
3 164 163 99 
3 163 164 98 
3 165 166 148 
3 105 104 167 
3 105 167 134 
3 107 117 118 
3 159 168 169 
3 64 63 175 
3 63 174 175 
3 63 76 174 
3 182 170 172 
3 170 56 172 
3 60 171 58 
3 171 79 59 
3 171 59 58 
3 60 58 56 
3 170 60 56 
3 182 172 173 
3 174 182 173 
3 64 175 176 
3 39 64 176 
3 39 176 183 
3 41 177 49 
3 42 41 49 
3 181 46 86 
3 178 181 86 
3 44 178 179 
3 44 180 178 
3 180 181 178 
3 181 42 46 
3 42 49 46 
3 41 90 177 
3 90 39 177 
3 76 182 174 
3 177 39 183 
3 66 184 226 
3 66 226 3 
3 186 225 185 
3 186 185 224 
3 186 224 5 
3 222 220 223 
3 223 220 221 
3 187 218 7 
3 7 218 219 
3 217 188 215 
3 188 189 13 
3 189 214 13 
3 189 190 214 
3 70 191 192 
3 70 192 193 
3 194 195 213 
3 194 213 212 
3 71 196 197 
3 71 197 198 
3 198 197 229 
3 209 210 211 
3 73 210 209 
3 199 20 200 
3 74 20 199 
3 201 23 208 
3 207 23 201 
3 202 206 203 
3 202 203 230 
3 230 203 231 
3 205 232 204 
3 205 204 227 
3 228 184 66 
3 230 232 205 
3 202 27 206 
3 27 207 206 
3 206 207 201 
3 23 74 208 
3 208 74 199 
3 20 73 200 
3 200 73 209 
3 210 198 211 
3 17 196 71 
3 212 196 17 
3 212 213 196 
3 193 195 194 
3 193 192 195 
3 214 191 70 
3 188 13 216 
3 215 188 216 
3 219 217 215 
3 218 217 219 
3 221 187 7 
3 220 187 221 
3 5 222 223 
3 224 222 5 
3 3 225 186 
3 3 226 225 
3 227 204 184 
3 227 184 228 
3 214 190 191 
3 211 198 229 
3 230 231 232 
