ply
format ascii 1.0
comment VCGLIB generated
element vertex 173
property float x
property float y
property float z
property float nx
property float ny
property float nz
element face 318
property list uchar int vertex_indices
end_header
3356.69 18861.3 5275.26 -0.0796749 -0.237914 -0.968013 
3179.17 18976.2 5307.01 -0.832829 -0.238273 -0.499622 
4495.49 19251.9 5283.77 0.156758 0.4784 -0.864038 
3225.66 18927 5283.77 -0.424257 -0.275555 -0.862598 
3313.31 19239.8 5283.77 -0.249062 0.441673 -0.861912 
3170.06 19042.5 5307.01 -0.884727 0.0131811 -0.465923 
3247.99 18863.1 5307.01 -0.589841 -0.632847 -0.50159 
4646.23 19140.3 5307.01 0.797935 0.326744 -0.506495 
3261.44 19154.4 5275.26 -0.200832 0.151578 -0.967828 
3205.8 18914.9 5307.01 -0.737974 -0.452348 -0.500775 
3247.99 19221.9 5307.01 -0.566732 0.65352 -0.501723 
3201.55 19102.4 5283.77 -0.491563 0.113618 -0.863398 
3365.61 18802.1 5307.01 -0.18433 -0.83236 -0.522686 
3225.06 19042.5 5275.26 -0.254256 -5.92201e-17 -0.967137 
3193.31 19042.5 5283.77 -0.549142 -0.0217403 -0.835446 
4437.81 19287.4 5307.01 0.138243 0.850989 -0.506663 
3370.34 18824.9 5283.77 -0.101009 -0.435217 -0.894642 
3415.56 18820.2 5283.77 -0.00266169 -0.575414 -0.817858 
4436.23 19264.2 5283.77 0.0722186 0.425291 -0.902171 
3261.44 18930.5 5275.26 -0.200689 -0.151577 -0.967858 
4562.63 19243 5307.01 0.515181 0.691849 -0.505899 
4624.91 19131 5283.77 0.455559 0.220777 -0.862394 
4611.49 19197.4 5307.01 0.681237 0.528543 -0.506516 
4664.27 19009 5307.01 0.852158 -0.131609 -0.506464 
4646.23 18944.7 5307.01 0.78587 -0.355036 -0.506317 
3415.56 18797 5307.01 -0.00282441 -0.9061 -0.423055 
4503.27 19273.8 5307.01 0.311826 0.804908 -0.504864 
3415.56 18852 5275.26 -0.00170796 -0.257999 -0.966144 
4421.06 18852 5275.26 0.00233986 -0.257732 -0.966214 
4664.27 19075.9 5307.01 0.856246 0.101246 -0.506548 
3263.86 18880 5283.77 -0.333611 -0.381651 -0.862001 
3205.8 19170 5307.01 -0.721506 0.477988 -0.500956 
3179.17 19108.7 5307.01 -0.823938 0.267842 -0.499387 
4421.06 19288 5307.01 0.000491202 0.964909 -0.262584 
3313.31 18845.1 5283.77 -0.216363 -0.458301 -0.86206 
3302.61 18824.5 5307.01 -0.398836 -0.767051 -0.502556 
4503.27 18811.2 5307.01 0.282935 -0.814992 -0.505703 
4611.49 18887.5 5307.01 0.662485 -0.552409 -0.505923 
4533.03 19196.6 5275.26 0.148079 0.206731 -0.967127 
4479.93 19223.6 5275.26 0.0694648 0.244243 -0.967223 
4593.46 18902.2 5283.77 0.400121 -0.307736 -0.863251 
4421.06 18820.2 5283.77 0.000281461 -0.42332 -0.90598 
4479.93 18861.3 5275.26 0.0696496 -0.244383 -0.967174 
4436.23 18820.7 5283.77 0.0914385 -0.496834 -0.863015 
4624.91 18953.9 5283.77 0.470316 -0.187354 -0.862381 
4611.56 19042.5 5275.26 0.250826 -5.22237e-17 -0.968032 
4641.24 19012.2 5283.77 0.504286 -0.0517271 -0.861986 
4641.24 19072.7 5283.77 0.499339 0.0880307 -0.861923 
4593.46 19182.7 5283.77 0.376976 0.336055 -0.863109 
4421.06 19233 5275.26 0.0331583 0.247974 -0.968199 
4421.06 19264.7 5283.77 0.0198409 0.579663 -0.814615 
4549.23 19224 5283.77 0.299169 0.461143 -0.835371 
4575.18 19154.4 5275.26 0.208451 0.142742 -0.96756 
4602.24 19101.3 5275.26 0.240034 0.0743366 -0.967914 
4575.18 18930.5 5275.26 0.208374 -0.142784 -0.967571 
4602.24 18983.6 5275.26 0.240015 -0.0742882 -0.967923 
4533.03 18888.4 5275.26 0.147925 -0.206669 -0.967164 
4495.49 18833.1 5283.77 0.191065 -0.466295 -0.86375 
4549.23 18860.9 5283.77 0.333998 -0.435873 -0.835739 
4562.63 18841.9 5307.01 0.490212 -0.70998 -0.505589 
4437.81 18797.5 5307.01 0.134966 -0.881706 -0.452083 
4421.06 18797 5307.01 0.000283 -0.819112 -0.573633 
3303.58 18888.4 5275.26 -0.146265 -0.203311 -0.968128 
3201.55 18982.5 5283.77 -0.481766 -0.148614 -0.863606 
3234.38 18983.6 5275.26 -0.238281 -0.0860513 -0.967376 
3234.38 19101.3 5275.26 -0.238274 0.0860997 -0.967374 
3225.66 19157.9 5283.77 -0.443115 0.24419 -0.862566 
3263.86 19204.9 5283.77 -0.360224 0.356452 -0.86208 
3302.61 19260.4 5307.01 -0.371089 0.781 -0.502326 
3415.56 19264.7 5283.77 -0.0595188 0.579107 -0.813076 
3303.58 19196.6 5275.26 -0.146487 0.20362 -0.968029 
3356.69 19223.6 5275.26 -0.0797567 0.23774 -0.968049 
3370.34 19260.1 5283.77 -0.130074 0.4873 -0.863493 
3415.56 19233 5275.26 -0.0333955 0.248295 -0.968109 
3415.56 19288 5307.01 -0.00791462 0.959801 -0.280571 
3365.61 19282.8 5307.01 -0.174105 0.856351 -0.486158 
4437.92 19055.3 5497.36 0.0023872 6.12322e-17 0.999997 
4241.82 19083.7 5497.83 0.0023872 6.12322e-17 0.999997 
4025.3 19005.5 5498.34 0.0023872 6.12322e-17 0.999997 
3453.63 19047.5 5499.71 0.0023872 6.12322e-17 0.999997 
3711.34 19038.4 5499.09 0.0023872 6.12322e-17 0.999997 
3639.94 19296.5 5499.26 0.00202557 0.529395 0.848373 
3474.04 19296.5 5499.66 0.00200404 0.543018 0.839719 
3548.61 19296.5 5499.48 0.00231683 0.241865 0.970307 
3883.54 19296.5 5498.68 0.00181036 0.651833 0.758361 
3726.34 19296.5 5499.06 0.00202522 0.529395 0.848373 
4645.26 19159.3 5496.86 0.814632 0.336816 0.472154 
4475.98 19289.2 5497.27 0.0875011 0.647594 0.756945 
4421.06 19296.5 5497.4 0.00684439 0.377747 0.925884 
4666.41 18976.7 5496.81 0.964916 -0.258553 0.0456812 
4641.03 19169.5 5496.87 0.818932 0.573691 0.01516 
4666.41 19108.2 5496.81 0.964922 0.258555 0.0455431 
4645.26 18925.7 5496.86 0.911673 -0.377927 0.161315 
4591.94 19228.8 5496.99 0.605027 0.789498 0.103127 
4486.8 19287.8 5497.24 0.343153 0.939161 0.0149346 
4537.93 19266.6 5497.12 0.249085 0.596347 0.763103 
4548.06 19262.4 5497.1 0.573499 0.81907 0.0149558 
4675.06 19042.5 5496.79 0.995176 -0.0980834 0.00227578 
4600.67 19222.1 5496.97 0.706882 0.707273 0.00911018 
4607.38 19213.4 5496.95 0.793206 0.608592 0.020978 
4673.62 19053.5 5496.8 0.858554 0.112877 0.500144 
4673.62 19031.5 5496.8 0.0607874 -0.00767754 0.998121 
3639.94 18788.5 5499.26 0.00200703 -0.541637 0.84061 
3223.4 18878.7 5500.26 -0.767322 -0.59799 0.231569 
3726.34 18788.5 5499.06 0.00200669 -0.541637 0.84061 
4421.06 18788.5 5497.4 0.00568763 -0.280032 0.959974 
3294.17 18819.5 5500.09 -0.55564 -0.831376 0.00884057 
3295.57 18818.8 5500.09 -0.428368 -0.903602 -0.00200927 
4475.98 18795.7 5497.27 0.045613 -0.331494 0.942354 
3273.36 18833.6 5500.14 -0.434773 -0.581246 0.687841 
4600.67 18862.9 5496.97 0.642633 -0.766026 0.0150803 
3238.92 18860.1 5500.22 -0.670031 -0.742045 0.0206781 
4607.38 18871.6 5496.95 0.568479 -0.434917 0.69834 
3474.04 18788.5 5499.66 0.00202667 -0.528069 0.849199 
3167.22 18999.5 5500.39 -0.465079 -0.0620838 0.883089 
3196.99 19171.9 5500.32 -0.84221 0.538682 0.022452 
3883.54 18788.5 5498.68 0.00153844 -0.76466 0.644432 
3363.57 18794.2 5499.92 -0.16788 -0.985632 0.0186215 
4556.77 18829.2 5497.07 0.605985 -0.7888 0.102844 
4548.06 18822.5 5497.1 0.412669 -0.910878 0.00223746 
3344.44 18798.7 5499.97 -0.278412 -0.960441 0.00637199 
4537.93 18818.3 5497.12 0.382766 -0.922913 0.0414978 
3548.61 18788.5 5499.48 0.00231788 -0.240088 0.970748 
4641.03 18915.5 5496.87 0.818848 -0.573812 0.0151087 
3294.17 19265.4 5500.09 -0.55475 0.832003 0.00489394 
4486.8 18797.1 5497.24 0.237478 -0.971364 0.00753363 
3170.57 18975.4 5500.38 -0.954544 -0.297089 0.0241648 
3187.17 18935.3 5500.34 -0.919286 -0.385739 0.0782208 
3415.56 18788.5 5499.8 -0.00839317 -0.526947 0.849857 
3395.08 18790.1 5499.85 -0.0169515 -0.159157 0.987108 
3333.29 18803 5500 -0.379161 -0.922258 0.0753474 
3299.24 18817.1 5500.08 -0.386439 -0.921893 0.0278884 
3196.99 18913.1 5500.32 -0.842063 -0.538915 0.0223735 
4600.67 19222.1 5338.76 0.704306 0.708108 -0.0503577 
3344.44 19286.2 5499.97 -0.277117 0.960816 0.00625485 
3299.24 19267.9 5500.08 -0.387389 0.921526 0.0268095 
3161.56 19042.5 5338.76 -0.999855 -1.49e-17 -0.0170302 
3363.57 19290.7 5499.92 -0.168784 0.985484 0.0182527 
3223.4 19206.3 5500.26 -0.786601 0.612715 0.0764116 
3273.36 19251.3 5500.14 -0.422013 0.565708 0.708435 
4548.06 18822.5 5338.76 0.496948 -0.866306 -0.0505562 
4666.41 19108.2 5338.76 0.96544 0.259137 -0.0278036 
3170.57 19109.5 5500.38 -0.954588 0.296954 0.0240805 
3333.29 19282 5500 -0.378845 0.922417 0.0749879 
4486.8 19287.8 5338.76 0.292491 0.955583 -0.0361933 
4486.8 18797.1 5338.76 0.292095 -0.955699 -0.0363371 
4548.06 19262.4 5338.76 0.529602 0.847482 -0.0360069 
4641.03 18915.5 5338.76 0.845442 -0.532871 -0.0357263 
3235.95 19222.1 5338.76 -0.729174 0.68412 -0.0168888 
3238.92 19224.9 5500.22 -0.669495 0.742526 0.0207668 
3415.56 19296.5 5499.8 -0.00906519 0.541803 0.840457 
3349.82 19287.8 5338.76 -0.274445 0.961244 -0.0262744 
3161.56 19042.5 5500.41 -0.999388 1.53368e-17 0.0349838 
3167.22 19085.5 5500.39 -0.113443 0.0154138 0.993425 
3187.17 19149.6 5500.34 -0.896765 0.375831 0.233588 
3295.57 19266.1 5500.09 -0.434637 0.900363 0.0209048 
3395.08 19294.9 5499.85 -0.0228832 0.205023 0.97849 
3415.56 19296.5 5338.76 -0.0104763 0.998829 -0.0472373 
4421.06 18788.5 5338.76 0.00880154 -0.999001 -0.0438187 
4600.67 18862.9 5338.76 0.678559 -0.733677 -0.0357277 
3415.56 18788.5 5338.76 -0.0112501 -0.999565 -0.0272513 
3195.58 18915.5 5338.76 -0.883909 -0.467357 -0.0167733 
3195.58 19169.5 5338.76 -0.88412 0.466957 -0.01683 
4641.03 19169.5 5338.76 0.845565 0.53267 -0.0358044 
3170.21 19108.2 5338.76 -0.975985 0.217196 -0.016734 
4666.41 18976.7 5338.76 0.965436 -0.259151 -0.0278155 
4421.06 19296.5 5338.76 0.00968346 0.99965 -0.0246164 
3349.82 18797.1 5338.76 -0.274436 -0.961248 -0.0262201 
3288.56 19262.4 5338.76 -0.525297 0.85072 -0.0183755 
3288.56 18822.5 5338.76 -0.525717 -0.850462 -0.0183272 
3235.95 18862.9 5338.76 -0.729392 -0.683889 -0.0168346 
4675.06 19042.5 5338.76 0.998753 -3.0572e-18 -0.0499279 
3170.21 18976.7 5338.76 -0.976008 -0.217091 -0.0167339 
3 0 34 62 
3 14 1 5 
3 66 32 31 
3 41 17 27 
3 26 2 15 
3 11 14 5 
3 11 5 32 
3 19 3 64 
3 71 70 4 
3 29 47 7 
3 8 65 66 
3 65 11 66 
3 66 11 32 
3 37 58 40 
3 74 69 75 
3 12 17 25 
3 16 34 0 
3 16 12 34 
3 13 14 11 
3 15 50 33 
3 12 16 17 
3 15 18 50 
3 17 16 27 
3 27 16 0 
3 30 3 19 
3 6 9 3 
3 7 21 22 
3 12 35 34 
3 23 24 44 
3 2 39 18 
3 2 18 15 
3 20 51 26 
3 48 51 20 
3 41 27 28 
3 39 49 18 
3 7 47 21 
3 29 23 46 
3 30 6 3 
3 4 10 68 
3 35 6 30 
3 61 17 41 
3 23 44 46 
3 37 59 58 
3 59 36 57 
3 25 17 61 
3 34 35 30 
3 36 43 57 
3 36 60 43 
3 38 39 2 
3 22 48 20 
3 24 37 40 
3 43 41 28 
3 42 43 28 
3 57 43 42 
3 40 56 54 
3 44 40 54 
3 24 40 44 
3 46 55 45 
3 46 45 47 
3 29 46 47 
3 21 53 52 
3 21 52 48 
3 21 48 22 
3 40 58 56 
3 18 49 50 
3 51 2 26 
3 51 38 2 
3 48 38 51 
3 48 52 38 
3 47 53 21 
3 47 45 53 
3 46 44 55 
3 44 54 55 
3 56 57 42 
3 58 57 56 
3 59 57 58 
3 60 41 43 
3 61 41 60 
3 62 30 19 
3 34 30 62 
3 13 63 14 
3 9 1 63 
3 63 1 14 
3 64 3 63 
3 3 9 63 
3 64 63 13 
3 65 13 11 
3 4 67 10 
3 4 70 67 
3 67 66 31 
3 67 31 10 
3 67 8 66 
3 72 68 75 
3 69 72 75 
3 70 8 67 
3 72 4 68 
3 72 71 4 
3 73 72 69 
3 73 71 72 
3 76 88 77 
3 76 77 105 
3 112 101 108 
3 108 101 105 
3 153 79 156 
3 156 79 150 
3 84 78 77 
3 79 80 83 
3 105 78 116 
3 78 80 116 
3 101 88 76 
3 79 122 80 
3 84 77 88 
3 105 77 78 
3 143 135 139 
3 143 156 137 
3 143 139 156 
3 155 124 139 
3 139 138 154 
3 139 149 138 
3 135 155 139 
3 143 137 134 
3 154 142 153 
3 139 153 156 
3 153 152 114 
3 153 129 79 
3 114 126 127 
3 127 132 103 
3 103 111 109 
3 114 109 129 
3 109 106 131 
3 109 130 129 
3 106 107 131 
3 153 114 129 
3 130 117 129 
3 114 103 109 
3 130 120 117 
3 139 154 153 
3 82 150 79 
3 83 82 79 
3 81 83 80 
3 85 81 80 
3 78 84 80 
3 87 88 101 
3 108 121 118 
3 138 115 154 
3 121 119 118 
3 118 110 112 
3 108 118 112 
3 112 123 92 
3 113 122 79 
3 92 89 101 
3 101 97 100 
3 101 76 105 
3 100 91 86 
3 104 116 80 
3 86 90 99 
3 129 128 79 
3 100 86 95 
3 93 96 95 
3 86 93 95 
3 95 94 87 
3 122 102 80 
3 108 125 121 
3 101 100 95 
3 86 99 93 
3 95 87 101 
3 84 85 80 
3 102 104 80 
3 128 113 79 
3 109 131 130 
3 112 92 101 
3 114 127 103 
3 99 98 93 
3 157 150 82 
3 166 84 88 
3 157 81 85 
3 157 83 81 
3 157 82 83 
3 85 84 157 
3 166 157 84 
3 144 87 94 
3 144 166 87 
3 166 88 87 
3 141 86 91 
3 90 86 163 
3 141 163 86 
3 163 99 90 
3 146 96 93 
3 147 92 123 
3 147 165 92 
3 165 89 92 
3 165 101 89 
3 159 110 118 
3 141 91 100 
3 144 94 95 
3 146 95 96 
3 146 144 95 
3 133 93 98 
3 133 146 93 
3 98 99 133 
3 163 133 99 
3 171 100 97 
3 171 141 100 
3 165 97 101 
3 165 171 97 
3 147 123 112 
3 159 112 110 
3 159 147 112 
3 140 118 119 
3 140 159 118 
3 145 119 121 
3 145 140 119 
3 158 125 108 
3 158 145 125 
3 158 108 105 
3 145 121 125 
3 160 116 104 
3 160 158 116 
3 158 105 116 
3 160 104 102 
3 160 102 122 
3 160 122 113 
3 160 113 128 
3 151 75 68 
3 157 75 151 
3 157 74 75 
3 151 68 168 
3 151 134 137 
3 169 106 109 
3 136 114 152 
3 136 172 114 
3 168 124 155 
3 168 139 124 
3 115 138 162 
3 148 162 138 
3 162 154 115 
3 172 126 114 
3 161 103 132 
3 161 170 103 
3 170 111 103 
3 169 107 106 
3 169 131 107 
3 167 120 130 
3 167 117 120 
3 160 128 129 
3 167 129 117 
3 167 160 129 
3 169 130 131 
3 169 167 130 
3 170 109 111 
3 170 169 109 
3 161 132 127 
3 172 127 126 
3 172 161 127 
3 152 153 136 
3 164 136 153 
3 164 153 142 
3 142 154 164 
3 162 164 154 
3 148 138 149 
3 149 139 148 
3 168 148 139 
3 137 156 151 
3 157 151 156 
3 157 156 150 
3 168 155 135 
3 135 143 168 
3 151 168 143 
3 151 143 134 
3 140 59 159 
3 165 147 24 
3 141 171 29 
3 133 163 22 
3 146 26 144 
3 158 61 60 
3 158 60 145 
3 159 59 37 
3 24 147 37 
3 145 36 140 
3 145 60 36 
3 147 159 37 
3 140 36 59 
3 166 15 33 
3 144 15 166 
3 22 163 7 
3 31 32 162 
3 133 22 20 
3 162 32 164 
3 148 31 162 
3 146 20 26 
3 158 25 61 
3 144 26 15 
3 171 165 23 
3 7 141 29 
3 133 20 146 
3 172 1 161 
3 148 10 31 
3 166 33 157 
3 160 12 25 
3 167 35 12 
3 23 165 24 
3 169 35 167 
3 168 68 10 
3 169 6 35 
3 167 12 160 
3 161 9 170 
3 168 10 148 
3 157 33 74 
3 29 171 23 
3 1 9 161 
3 5 172 136 
3 9 6 170 
3 163 141 7 
3 170 6 169 
3 164 5 136 
3 32 5 164 
3 160 25 158 
3 5 1 172 
