ply
format ascii 1.0
comment VCGLIB generated
element vertex 200
property float x
property float y
property float z
property float nx
property float ny
property float nz
element face 370
property list uchar int vertex_indices
end_header
6449.32 19675.2 7503.9 1.54061 0 -0.306448 
6289.49 19712.5 7437.7 -0.872678 0 -1.30608 
6223.29 19712.5 7503.9 -0.754042 0 -0.503826 
6249.8 19675.2 7464.22 -0.552034 0 -0.368851 
6213.98 19675.2 7550.71 -0.651171 0 0.129528 
6383.11 19675.2 7663.73 0.306448 0 1.54061 
6383.11 19712.5 7663.73 0.129525 0 0.651166 
6336.3 19675.2 7673.04 0.176923 0 0.889448 
6289.49 19712.5 7663.73 -0.368855 0 0.552029 
6223.29 19675.2 7597.52 -0.552034 0 0.368851 
6249.8 19675.2 7637.21 -1.30608 0 0.872678 
6223.29 19675.2 7503.9 -0.651166 0 -0.129525 
6422.8 19712.5 7464.22 0.872685 0 -1.30607 
6422.8 19675.2 7464.22 1.30607 0 -0.872689 
6458.63 19675.2 7550.71 0.889448 0 -0.176923 
6422.8 19675.2 7637.21 0 -0.589055 0 
6289.49 19675.2 7663.73 0 -2.55254 0 
6449.32 19675.2 7597.52 0 -0.981747 0 
6289.49 19675.2 7437.7 0 -2.3562 0 
6336.3 19675.2 7428.39 0 -2.74889 0 
6383.11 19675.2 7437.7 0 -2.55255 0 
6458.63 19712.5 7550.71 0 -1.10377 0 
6449.32 19712.5 7503.9 0 -1.54699 0 
6383.11 19712.5 7437.7 0 -0.670844 0 
6413.56 19712.5 7353.85 0 -1.39555 0 
6249.8 19712.5 7464.22 0 -1.85576 0 
6127.18 19712.5 7582.23 0 -1.22246 0 
6213.98 19712.5 7550.71 0 -0.696682 0 
6223.29 19712.5 7597.52 0 -1.63442 0 
6145.76 19712.5 7642.47 0 -1.02294 0 
6249.8 19712.5 7637.21 0 -0.646263 0 
6336.3 19712.5 7673.04 0 -0.963798 0 
6422.8 19712.5 7637.21 0 -1.336 0 
6547.78 19712.5 7550.71 0 -1.4212 0 
6230.56 19712.5 7733.86 0 -1.5964 0 
6181.27 19712.5 7694.56 0 -0.950742 0 
6230.56 19712.5 7367.56 0 -1.5964 0 
6289.24 19712.5 7344.53 0 -1.19945 0 
6336.3 19712.5 7428.39 0 -0.687983 0 
6352.11 19712.5 7339.82 0 -1.31941 0 
6538.39 19712.5 7613.05 0 -0.490824 0 
6449.32 19712.5 7597.52 0 -1.54699 0 
6409.4 19510.1 7512.35 1.29708 0 -0.319681 
6409.4 19675.2 7512.35 1.52516 0 -0.375893 
6383.2 19675.2 7482.78 0.0832957 0 -0.219639 
6346.25 19675.2 7468.76 0.556998 0 -1.46873 
6274.51 19510.1 7495.97 -0.758883 0 -1.09942 
6307.03 19675.2 7473.53 -0.758883 0 -1.09942 
6274.51 19675.2 7495.97 -0.89232 0 -1.29274 
6256.15 19510.1 7530.96 -1.5708 0 0 
6256.15 19510.1 7570.47 -1.33589 0 0 
6307.03 19510.1 7627.9 -0.758893 0 1.09941 
6383.2 19510.1 7618.65 0.473703 0 1.24909 
6346.25 19675.2 7632.66 0.473703 0 1.24909 
6418.85 19510.1 7550.71 1.29708 0 0.319681 
6418.85 19675.2 7550.71 1.52516 0 0.375893 
6409.4 19675.2 7589.08 1.17576 0 1.04163 
6383.2 19675.2 7618.65 0.175826 0 0.155767 
6409.4 19510.1 7589.08 0.999937 0 0.885859 
6307.03 19675.2 7627.9 -0.161013 0 1.32616 
6346.25 19510.1 7632.66 -0.028312 0 0.233187 
6274.51 19510.1 7605.45 -0.207992 0 0.109163 
6274.51 19675.2 7605.45 -1.39087 0 0.729988 
6256.15 19675.2 7570.47 -0.207992 0 0.109163 
6256.15 19675.2 7530.96 -1.39087 0 -0.729988 
6346.25 19510.1 7468.76 -0.189344 0 -1.55934 
6307.03 19510.1 7473.53 -0.161029 0 -1.32616 
6383.2 19510.1 7482.78 0.999937 0 -0.885859 
6526.52 19867.6 7462.86 0.757228 0.233563 -0.23007 
6543.29 19870.2 7580.81 1.50102 0.46298 0 
6543.29 19870.2 7520.62 0.80025 0.115198 0 
6494.34 19862.8 7412.22 0.293204 0.0680466 -0.346295 
6449.36 19856 7372.8 0.448539 0.138353 -0.53565 
6511.04 19839 7431.58 1.39793 0.239 -0.911264 
6413.56 19839 7353.85 0.096017 -0.0883263 -0.420671 
6395.22 19847.8 7347.8 0.544377 -0.500774 -2.38503 
6289.24 19839 7344.53 -0.378658 -0.0335764 -0.964803 
6279.37 19856.5 7347.8 -0.650881 -0.0577151 -1.65842 
6183.57 19886.1 7412.22 -0.576844 0.277792 -0.73063 
6136.27 19900.7 7520.62 -0.793581 0.116917 0 
6127.18 19839 7519.19 -1.53146 0.225628 0 
6145.76 19839 7642.47 -0.743124 0.121 0.479285 
6183.57 19886.1 7689.2 -0.60794 0.292766 0.428795 
6163.34 19956.9 7580.81 -0.64128 0.308822 0.206666 
6152.48 19895.7 7638.57 -0.681497 0.328189 0.219626 
6136.27 19900.7 7580.81 -1.42929 0.22026 0.420098 
6181.27 19839 7694.56 -0.332704 0.0301507 0.4172 
6227.04 19872.7 7728.62 -0.542004 0.261022 1.30258 
6204.25 19929 7689.2 -0.576827 0.277784 0.730612 
6314.53 19894.4 7753.63 -0.0759722 0.0943075 1.01377 
6395.22 19847.8 7753.63 0.224366 0.10834 0.521165 
6413.56 19839 7747.58 0.891986 0.430714 2.07194 
6449.36 19856 7728.62 0.109781 0.0338636 0.248755 
6352.11 19839 7761.6 0.0666732 0.0205663 0.383328 
6511.04 19839 7669.85 0.550037 -0.0293307 0.510354 
6494.34 19862.8 7689.2 0.697602 0.119258 0.454742 
6538.39 19839 7613.05 0.75478 -0.00109309 0.113764 
6331.85 19898.4 7753.63 0.0119631 0.159767 1.15987 
6287.07 19872.5 7753.63 -0.0911033 0.0438726 0.511679 
6279.37 19856.5 7753.63 -0.650866 -0.0577534 1.65841 
6389.98 19864.8 7347.8 0.222443 0.151666 -1.54802 
6379.98 19879.5 7347.8 0.170718 0.116399 -1.18806 
6352.11 19839 7339.82 0.0334107 0.041893 -0.329628 
6366.09 19890.6 7347.8 0.116754 0.146395 -1.15188 
6331.85 19898.4 7347.8 0.0119638 0.159776 -1.15987 
6480.3 19908.3 7412.22 0.793889 0.541273 -1.09648 
6453.46 19947.7 7412.22 0.528995 0.360669 -0.730625 
6477.32 19969.8 7462.86 0.594148 0.405104 -0.45699 
6538.39 19839 7488.38 0.716057 -0.0106022 -0.344839 
6489.75 19981.3 7520.62 1.29785 0.88487 0 
6524.9 19929.8 7580.81 1.29785 0.88487 0 
6524.9 19929.8 7520.62 0.663768 0.452556 0 
6509.62 19922.4 7638.57 0.7228 0.222951 0.21961 
6389.98 19864.8 7753.63 0.218762 0.0674784 0.495698 
6379.98 19879.5 7753.63 0.170708 0.116392 1.18806 
6366.09 19890.6 7753.63 0.116747 0.146386 1.15188 
6393.47 19938 7728.62 0.0419706 0.106942 0.248755 
6177.36 19947.3 7638.57 -0.485229 0.233673 0.342244 
6127.18 19839 7582.23 -0.748463 0.11027 0 
6163.34 19956.9 7520.62 -0.691427 0.33297 0 
6152.48 19895.7 7462.86 -1.39543 0.672 -0.449705 
6145.76 19839 7458.95 -1.45879 0.203717 -0.449995 
6204.25 19929 7412.22 -0.607927 0.29276 -0.428786 
6236.65 19963.9 7412.22 -0.527141 0.489119 -0.456975 
6241.83 19903.4 7372.8 -0.813415 0.754751 -1.26628 
6227.04 19872.7 7372.8 -0.754872 0.0683951 -0.946584 
6287.07 19872.5 7347.8 -0.225821 0.209518 -2.30416 
6314.53 19894.4 7347.8 -0.0285381 0.0494379 -0.61881 
6294.53 19945.4 7372.8 -0.0255594 0.112007 -0.248758 
6439.31 19888.6 7372.8 0.529 0.360656 -0.730607 
6420.12 19916.7 7372.8 0.292663 0.367008 -0.535659 
6416.22 19977.4 7412.22 0.399185 0.500589 -0.730624 
6509.62 19922.4 7462.86 0.62498 0.426127 -0.219636 
6453.46 19947.7 7689.2 0.594154 0.405094 0.45699 
6480.3 19908.3 7689.2 1.15162 0.785172 0.885759 
6439.31 19888.6 7728.62 0.916823 0.625062 1.26628 
6526.52 19867.6 7638.57 0.80437 0.120313 0.238802 
6393.47 19938 7372.8 0.303439 0.380498 -1.05383 
6440.97 20020.2 7520.62 0.536383 1.36667 -0.426252 
6440.97 20020.2 7580.81 0.573881 1.46221 0 
6477.32 19969.8 7638.57 0.654715 0.446384 0.230083 
6489.75 19981.3 7580.81 0.443779 0.556458 0.206662 
6420.12 19916.7 7728.62 0.387832 0.264424 0.535655 
6379.11 20026.5 7462.86 0.262711 0.66939 -0.457006 
6432.49 20005.6 7462.86 0.276345 0.704131 -0.219619 
6379.11 20026.5 7638.57 0.459476 1.17075 0.799229 
6416.22 19977.4 7689.2 0.509263 1.2974 0.885786 
6432.49 20005.6 7638.57 0.196784 0.501327 0.342276 
6361.74 19950.4 7728.62 0.171512 0.436943 0.535685 
6349.56 19897 7753.63 0.0534386 0.713667 1.54956 
6361.74 19950.4 7372.8 0.044956 0.599907 -1.3026 
6349.56 19897 7347.8 0.0171076 0.22829 -0.495692 
6324.36 19998.3 7412.22 0.0239585 0.31971 -0.365867 
6371.87 19994.8 7412.22 0.0717683 0.958138 -1.0965 
6382.88 20043 7580.81 0.0531881 0.70976 0.206651 
6321.93 20030.8 7638.57 0.0565259 0.754301 0.219619 
6324.36 19998.3 7689.2 0.0537124 0.717085 0.45696 
6371.87 19994.8 7689.2 0.0478215 0.638438 0.730621 
6327.76 19953 7728.62 0.0350603 0.468071 0.535654 
6241.83 19903.4 7728.62 -0.469325 0.435477 0.730633 
6320.66 20047.7 7580.81 0.0600497 0.801122 0 
6382.88 20043 7520.62 0.0573631 0.76528 0 
6320.66 20047.7 7520.62 -0.326734 1.43132 -0.426289 
6259.83 20033.8 7520.62 -0.34958 1.5314 0 
6294.53 19945.4 7728.62 -0.133867 0.586509 1.30258 
6299.15 19885.5 7753.63 -0.243333 0.421538 1.05389 
6327.76 19953 7372.8 -0.142468 0.624191 -0.730625 
6265.01 19928.3 7372.8 -0.554806 0.960958 -1.26627 
6321.93 20030.8 7462.86 -0.168314 0.737452 -0.219605 
6266.02 20018 7462.86 -0.34464 1.51001 -0.449663 
6216.36 19989.4 7462.86 -0.359561 0.622759 -0.457 
6259.83 20033.8 7580.81 -0.378192 0.655088 0.219635 
6266.02 20018 7638.57 -0.774443 1.34134 0.449664 
6277.91 19987.7 7689.2 -0.213815 0.93676 1.09651 
6236.65 19963.9 7689.2 -0.359541 0.622769 0.457002 
6265.01 19928.3 7728.62 -0.234686 0.406505 0.535661 
6299.15 19885.5 7347.8 -0.16781 0.155708 -0.495672 
6277.91 19987.7 7412.22 -0.359539 0.622767 -0.456975 
6177.36 19947.3 7462.86 -0.527143 0.489117 -0.456978 
6205.79 20002.6 7580.81 -0.401665 0.695747 0 
6205.79 20002.6 7520.62 -0.785362 1.36037 0 
6216.36 19989.4 7638.57 -0.394792 0.366316 0.342245 
6547.78 19839 7550.71 0.457329 0 -0.0689309 
6468.16 19712.5 7385.37 0.339027 0 -0.314574 
6181.27 19839 7406.87 -0.382133 0 -0.260527 
6127.18 19712.5 7519.19 -1.5708 0 0 
6289.24 19712.5 7756.89 -0.404899 0 1.03169 
6230.56 19839 7733.86 -0.168967 0 0.430529 
6289.24 19839 7756.89 -0.573866 0 1.46222 
6352.11 19712.5 7761.6 0.349529 0 1.53141 
6413.56 19712.5 7747.58 0.102913 0 0.450899 
6511.04 19712.5 7669.85 1.41523 0 0.681555 
6468.16 19839 7716.06 0.785389 0 1.36035 
6468.16 19712.5 7716.06 0.231245 0 0.400535 
6145.76 19712.5 7458.95 -1.50101 0 -0.463016 
6230.56 19839 7367.56 -0.691014 0 -0.866508 
6181.27 19712.5 7406.87 -0.691014 0 -0.866508 
6468.16 19839 7385.37 0.55415 0 -0.959815 
6538.39 19712.5 7488.38 1.41524 0 -0.681551 
6511.04 19712.5 7431.58 0.998537 0 -0.480877 
3 22 14 0 
3 22 0 12 
3 13 20 23 
3 20 38 23 
3 19 18 1 
3 18 25 1 
3 2 3 11 
3 2 11 27 
3 28 4 9 
3 28 9 30 
3 8 10 16 
3 31 8 16 
3 6 7 5 
3 32 6 5 
3 41 15 17 
3 41 17 21 
3 32 15 41 
3 32 5 15 
3 6 31 7 
3 31 16 7 
3 8 30 10 
3 30 9 10 
3 27 4 28 
3 27 11 4 
3 25 3 2 
3 18 3 25 
3 19 1 38 
3 20 19 38 
3 13 23 12 
3 12 0 13 
3 21 14 22 
3 21 17 14 
3 17 4 14 
3 9 4 17 
3 5 10 15 
3 7 16 5 
3 16 10 5 
3 10 9 15 
3 15 9 17 
3 4 11 14 
3 14 11 0 
3 3 18 13 
3 18 19 20 
3 13 18 20 
3 0 3 13 
3 11 3 0 
3 21 22 198 
3 22 199 198 
3 12 23 183 
3 23 24 183 
3 1 37 38 
3 25 196 1 
3 25 194 196 
3 27 185 2 
3 26 185 27 
3 29 28 30 
3 35 29 30 
3 186 8 31 
3 190 31 6 
3 190 6 193 
3 191 32 41 
3 191 41 40 
3 21 198 33 
3 193 32 191 
3 193 6 32 
3 189 31 190 
3 189 186 31 
3 186 34 8 
3 34 35 8 
3 35 30 8 
3 29 26 28 
3 28 26 27 
3 185 194 2 
3 2 194 25 
3 1 196 36 
3 1 36 37 
3 38 37 39 
3 38 39 24 
3 23 38 24 
3 12 183 199 
3 22 12 199 
3 40 41 21 
3 40 21 33 
3 55 54 42 
3 55 42 43 
3 67 65 44 
3 44 65 45 
3 66 46 47 
3 47 46 48 
3 64 49 50 
3 64 50 63 
3 51 62 61 
3 59 62 51 
3 52 53 60 
3 57 53 52 
3 56 58 54 
3 56 54 55 
3 57 58 56 
3 57 52 58 
3 53 59 60 
3 60 59 51 
3 63 61 62 
3 63 50 61 
3 48 49 64 
3 48 46 49 
3 45 66 47 
3 65 66 45 
3 43 67 44 
3 43 42 67 
3 70 182 108 
3 70 108 68 
3 111 70 68 
3 110 70 111 
3 110 69 70 
3 69 182 70 
3 71 73 197 
3 71 197 72 
3 71 72 105 
3 132 71 105 
3 132 68 71 
3 68 73 71 
3 74 102 75 
3 102 76 127 
3 76 195 77 
3 77 195 125 
3 126 77 125 
3 76 77 126 
3 78 184 121 
3 120 78 121 
3 122 78 120 
3 124 78 122 
3 124 125 78 
3 125 184 78 
3 79 80 118 
3 84 118 81 
3 84 81 82 
3 117 84 82 
3 83 84 117 
3 83 85 84 
3 85 118 84 
3 187 87 86 
3 99 87 187 
3 99 159 87 
3 159 88 87 
3 87 88 82 
3 87 82 86 
3 93 89 188 
3 91 90 93 
3 92 90 91 
3 92 113 90 
3 90 113 93 
3 95 192 94 
3 136 95 94 
3 134 95 136 
3 95 134 135 
3 95 135 92 
3 95 92 192 
3 69 96 182 
3 115 149 93 
3 93 149 97 
3 93 97 89 
3 89 165 188 
3 165 98 188 
3 188 98 99 
3 188 99 187 
3 100 102 101 
3 130 100 101 
3 129 100 130 
3 129 75 100 
3 75 102 100 
3 101 102 103 
3 102 127 104 
3 102 104 151 
3 103 102 151 
3 197 74 72 
3 105 72 129 
3 105 129 106 
3 107 105 106 
3 107 132 105 
3 68 108 73 
3 111 68 132 
3 109 111 132 
3 141 111 109 
3 141 110 111 
3 136 94 96 
3 112 136 69 
3 112 134 136 
3 192 92 91 
3 92 135 113 
3 135 114 113 
3 113 114 93 
3 114 115 93 
3 142 115 114 
3 142 116 115 
3 116 149 115 
3 82 81 86 
3 117 82 88 
3 181 117 88 
3 179 117 181 
3 179 83 117 
3 79 118 85 
3 119 79 85 
3 119 178 79 
3 178 120 79 
3 79 120 80 
3 119 85 83 
3 180 119 83 
3 180 170 119 
3 170 178 119 
3 120 121 80 
3 178 122 120 
3 123 122 178 
3 167 122 123 
3 167 124 122 
3 195 184 125 
3 126 125 124 
3 176 126 124 
3 176 76 126 
3 127 76 176 
3 127 176 167 
3 127 167 128 
3 104 127 128 
3 72 75 129 
3 72 74 75 
3 106 129 130 
3 106 130 131 
3 144 106 131 
3 107 106 144 
3 109 132 107 
3 109 107 138 
3 139 109 138 
3 141 109 139 
3 110 112 69 
3 140 112 110 
3 140 133 112 
3 133 134 112 
3 134 142 135 
3 135 142 114 
3 69 136 96 
3 130 101 137 
3 130 137 131 
3 138 107 144 
3 138 144 161 
3 154 138 161 
3 139 138 154 
3 141 140 110 
3 140 141 147 
3 146 140 147 
3 133 140 146 
3 133 116 142 
3 133 146 116 
3 146 148 116 
3 116 148 149 
3 134 133 142 
3 137 101 103 
3 137 103 150 
3 137 150 153 
3 131 137 153 
3 144 131 143 
3 161 144 143 
3 147 141 139 
3 147 139 145 
3 157 147 145 
3 146 147 157 
3 146 157 148 
3 157 158 148 
3 148 158 97 
3 148 97 149 
3 103 151 150 
3 150 151 166 
3 150 166 152 
3 153 150 152 
3 143 131 153 
3 143 153 168 
3 162 143 168 
3 161 143 162 
3 145 139 154 
3 154 161 160 
3 155 154 160 
3 145 154 155 
3 157 145 156 
3 157 156 158 
3 98 159 99 
3 98 175 159 
3 175 174 159 
3 159 174 88 
3 151 104 166 
3 104 128 166 
3 168 153 152 
3 166 177 152 
3 169 152 177 
3 168 152 169 
3 160 161 162 
3 162 168 163 
3 171 162 163 
3 160 162 171 
3 156 145 155 
3 155 160 172 
3 173 155 172 
3 156 155 173 
3 97 158 89 
3 158 164 89 
3 89 164 165 
3 158 156 164 
3 166 128 177 
3 128 167 123 
3 163 168 169 
3 169 177 170 
3 180 169 170 
3 163 169 180 
3 172 160 171 
3 171 163 179 
3 181 171 179 
3 172 171 181 
3 156 173 164 
3 173 172 174 
3 173 174 175 
3 164 173 175 
3 165 164 175 
3 165 175 98 
3 176 124 167 
3 128 123 177 
3 170 177 123 
3 170 123 178 
3 180 83 179 
3 179 163 180 
3 181 88 174 
3 174 172 181 
3 182 33 198 
3 182 198 108 
3 73 199 183 
3 73 183 197 
3 24 39 74 
3 74 39 102 
3 37 36 76 
3 76 36 195 
3 184 196 194 
3 184 194 121 
3 80 185 26 
3 80 26 118 
3 81 29 35 
3 81 35 86 
3 186 187 34 
3 188 187 186 
3 190 93 189 
3 91 93 190 
3 192 193 191 
3 192 191 94 
3 96 40 33 
3 96 33 182 
3 94 40 96 
3 94 191 40 
3 192 91 193 
3 193 91 190 
3 93 188 189 
3 189 188 186 
3 187 86 34 
3 34 86 35 
3 118 29 81 
3 118 26 29 
3 121 185 80 
3 121 194 185 
3 195 196 184 
3 36 196 195 
3 102 37 76 
3 39 37 102 
3 197 24 74 
3 183 24 197 
3 108 199 73 
3 108 198 199 
